%
M48
M72
T01C0.02400
%
T01
X43700Y13100
X50900Y23000
X31100Y25700
X23000Y22100
X23000Y29300
X52700Y43700
X30200Y58100
X23000Y59900
X23000Y54500
X29300Y64400
X33800Y68900
X28400Y71600
X36500Y77000
X51800Y77900
X56300Y68900
X59900Y60800
X75200Y66200
X83300Y71600
X83300Y77000
X95000Y72500
X103100Y73400
X110300Y65300
X113900Y61700
X104900Y53600
X115700Y50000
X108500Y39200
X104900Y32000
X86000Y31100
X86000Y46400
X131000Y38300
X159800Y51800
X166100Y45500
X162500Y34700
X173300Y31100
X211100Y37400
X233600Y37400
X233600Y46400
X211100Y59900
X192200Y70700
X168800Y68900
X211100Y82400
X192200Y93200
X204800Y96800
X189500Y104900
X189500Y112100
X211100Y109400
X233600Y109400
X230900Y93200
X228200Y72500
X280400Y46400
X279500Y37400
X168800Y92300
X115700Y113000
X111200Y108500
X113000Y99500
X99500Y99500
X86000Y90500
X77000Y94100
X61700Y93200
X61700Y87800
X42800Y92300
X47300Y102200
X58100Y107600
X56300Y114800
X58100Y120200
X52700Y120200
X37400Y123800
X52700Y130100
X77000Y134600
X115700Y134600
X129200Y129200
X24800Y143600
X24800Y105800
X23900Y92300
X280400Y113900
M30
