G75*
%MOIN*%
%OFA0B0*%
%FSLAX25Y25*%
%IPPOS*%
%LPD*%
%AMOC8*
5,1,8,0,0,1.08239X$1,22.5*
%
%ADD10C,0.00000*%
%ADD11C,0.00400*%
%ADD12C,0.01600*%
%ADD13C,0.00900*%
%ADD14C,0.00600*%
%ADD15C,0.00800*%
%ADD16C,0.00500*%
%ADD17C,0.00300*%
%ADD18C,0.00200*%
D10*
X0002500Y0007415D02*
X0312500Y0007415D01*
X0312500Y0157415D01*
X0002500Y0157415D01*
X0002500Y0007415D01*
D11*
X0020200Y0017615D02*
X0021970Y0017615D01*
X0022560Y0018205D01*
X0022560Y0018795D01*
X0021970Y0019385D01*
X0020200Y0019385D01*
X0020200Y0017615D02*
X0020200Y0021155D01*
X0021970Y0021155D01*
X0022560Y0020565D01*
X0022560Y0019975D01*
X0021970Y0019385D01*
X0023825Y0019385D02*
X0026185Y0019385D01*
X0026185Y0019975D02*
X0026185Y0017615D01*
X0023825Y0017615D02*
X0023825Y0019975D01*
X0025005Y0021155D01*
X0026185Y0019975D01*
X0027450Y0021155D02*
X0029810Y0021155D01*
X0028630Y0021155D02*
X0028630Y0017615D01*
X0031075Y0019385D02*
X0033435Y0019385D01*
X0032255Y0020565D02*
X0032255Y0018205D01*
X0029220Y0027615D02*
X0027450Y0027615D01*
X0027450Y0031155D01*
X0029220Y0031155D01*
X0029810Y0030565D01*
X0029810Y0028205D01*
X0029220Y0027615D01*
X0026185Y0027615D02*
X0026185Y0031155D01*
X0023825Y0031155D02*
X0026185Y0027615D01*
X0023825Y0027615D02*
X0023825Y0031155D01*
X0022560Y0030565D02*
X0021970Y0031155D01*
X0020790Y0031155D01*
X0020200Y0030565D01*
X0020200Y0028205D01*
X0020790Y0027615D01*
X0021970Y0027615D01*
X0022560Y0028205D01*
X0022560Y0029385D01*
X0021380Y0029385D01*
X0021970Y0037615D02*
X0020200Y0037615D01*
X0020200Y0041155D01*
X0021970Y0041155D01*
X0022560Y0040565D01*
X0022560Y0039975D01*
X0021970Y0039385D01*
X0020200Y0039385D01*
X0021970Y0039385D02*
X0022560Y0038795D01*
X0022560Y0038205D01*
X0021970Y0037615D01*
X0023825Y0037615D02*
X0023825Y0039975D01*
X0025005Y0041155D01*
X0026185Y0039975D01*
X0026185Y0037615D01*
X0026185Y0039385D02*
X0023825Y0039385D01*
X0027450Y0041155D02*
X0029810Y0041155D01*
X0028630Y0041155D02*
X0028630Y0037615D01*
X0031075Y0039385D02*
X0033435Y0039385D01*
X0032255Y0040565D02*
X0032255Y0038205D01*
X0029220Y0047615D02*
X0028040Y0047615D01*
X0027450Y0048205D01*
X0027450Y0050565D01*
X0028040Y0051155D01*
X0029220Y0051155D01*
X0029810Y0050565D01*
X0029810Y0048205D02*
X0029220Y0047615D01*
X0026185Y0048205D02*
X0025595Y0047615D01*
X0024415Y0047615D01*
X0023825Y0048205D01*
X0023825Y0050565D01*
X0024415Y0051155D01*
X0025595Y0051155D01*
X0026185Y0050565D01*
X0022560Y0051155D02*
X0022560Y0048795D01*
X0021380Y0047615D01*
X0020200Y0048795D01*
X0020200Y0051155D01*
X0021380Y0058205D02*
X0021380Y0060565D01*
X0020200Y0059385D02*
X0022560Y0059385D01*
X0023825Y0059385D02*
X0025005Y0059975D01*
X0025595Y0059975D01*
X0026185Y0059385D01*
X0026185Y0058205D01*
X0025595Y0057615D01*
X0024415Y0057615D01*
X0023825Y0058205D01*
X0023825Y0059385D02*
X0023825Y0061155D01*
X0026185Y0061155D01*
X0027450Y0059975D02*
X0028630Y0057615D01*
X0029810Y0059975D01*
X0029220Y0067615D02*
X0028040Y0067615D01*
X0027450Y0068205D01*
X0027450Y0070565D01*
X0028040Y0071155D01*
X0029220Y0071155D01*
X0029810Y0070565D01*
X0029810Y0068205D01*
X0029220Y0067615D01*
X0031075Y0068205D02*
X0031665Y0067615D01*
X0032845Y0067615D01*
X0033435Y0068205D01*
X0033435Y0071155D01*
X0034701Y0071155D02*
X0037061Y0071155D01*
X0035881Y0071155D02*
X0035881Y0067615D01*
X0031075Y0068205D02*
X0031075Y0071155D01*
X0026185Y0071155D02*
X0026185Y0067615D01*
X0026185Y0069385D02*
X0023825Y0069385D01*
X0022560Y0068795D02*
X0022560Y0068205D01*
X0021970Y0067615D01*
X0020790Y0067615D01*
X0020200Y0068205D01*
X0020790Y0069385D02*
X0021970Y0069385D01*
X0022560Y0068795D01*
X0023825Y0067615D02*
X0023825Y0071155D01*
X0022560Y0070565D02*
X0021970Y0071155D01*
X0020790Y0071155D01*
X0020200Y0070565D01*
X0020200Y0069975D01*
X0020790Y0069385D01*
X0020200Y0077615D02*
X0020200Y0081155D01*
X0021970Y0081155D01*
X0022560Y0080565D01*
X0022560Y0079385D01*
X0021970Y0078795D01*
X0020200Y0078795D01*
X0023825Y0079385D02*
X0025595Y0079385D01*
X0026185Y0078795D01*
X0026185Y0078205D01*
X0025595Y0077615D01*
X0023825Y0077615D01*
X0023825Y0081155D01*
X0025595Y0081155D01*
X0026185Y0080565D01*
X0026185Y0079975D01*
X0025595Y0079385D01*
X0027450Y0079385D02*
X0029810Y0079385D01*
X0029220Y0077615D02*
X0029220Y0081155D01*
X0027450Y0079385D01*
X0028040Y0087615D02*
X0027450Y0088205D01*
X0028040Y0087615D02*
X0029220Y0087615D01*
X0029810Y0088205D01*
X0029810Y0088795D01*
X0029220Y0089385D01*
X0028630Y0089385D01*
X0029220Y0089385D02*
X0029810Y0089975D01*
X0029810Y0090565D01*
X0029220Y0091155D01*
X0028040Y0091155D01*
X0027450Y0090565D01*
X0026185Y0090565D02*
X0026185Y0089975D01*
X0025595Y0089385D01*
X0023825Y0089385D01*
X0022560Y0089385D02*
X0021970Y0088795D01*
X0020200Y0088795D01*
X0020200Y0087615D02*
X0020200Y0091155D01*
X0021970Y0091155D01*
X0022560Y0090565D01*
X0022560Y0089385D01*
X0023825Y0087615D02*
X0023825Y0091155D01*
X0025595Y0091155D01*
X0026185Y0090565D01*
X0025595Y0089385D02*
X0026185Y0088795D01*
X0026185Y0088205D01*
X0025595Y0087615D01*
X0023825Y0087615D01*
X0023825Y0097615D02*
X0023825Y0101155D01*
X0026185Y0097615D01*
X0026185Y0101155D01*
X0027450Y0101155D02*
X0029220Y0101155D01*
X0029810Y0100565D01*
X0029810Y0098205D01*
X0029220Y0097615D01*
X0027450Y0097615D01*
X0027450Y0101155D01*
X0022560Y0100565D02*
X0021970Y0101155D01*
X0020790Y0101155D01*
X0020200Y0100565D01*
X0020200Y0098205D01*
X0020790Y0097615D01*
X0021970Y0097615D01*
X0022560Y0098205D01*
X0022560Y0099385D01*
X0021380Y0099385D01*
X0020790Y0105115D02*
X0020200Y0105705D01*
X0020790Y0105115D02*
X0021970Y0105115D01*
X0022560Y0105705D01*
X0022560Y0106295D01*
X0021970Y0106885D01*
X0020790Y0106885D01*
X0020200Y0107475D01*
X0020200Y0108065D01*
X0020790Y0108655D01*
X0021970Y0108655D01*
X0022560Y0108065D01*
X0023825Y0108065D02*
X0023825Y0105705D01*
X0024415Y0105115D01*
X0025595Y0105115D01*
X0026185Y0105705D01*
X0027450Y0106295D02*
X0029810Y0108655D01*
X0027450Y0108655D02*
X0027450Y0105115D01*
X0028040Y0106885D02*
X0029810Y0105115D01*
X0026185Y0108065D02*
X0025595Y0108655D01*
X0024415Y0108655D01*
X0023825Y0108065D01*
X0024415Y0115115D02*
X0023825Y0115705D01*
X0024415Y0115115D02*
X0025595Y0115115D01*
X0026185Y0115705D01*
X0026185Y0116885D01*
X0025595Y0117475D01*
X0025005Y0117475D01*
X0023825Y0116885D01*
X0023825Y0118655D01*
X0026185Y0118655D01*
X0027450Y0118655D02*
X0027450Y0116295D01*
X0028630Y0115115D01*
X0029810Y0116295D01*
X0029810Y0118655D01*
X0022560Y0116885D02*
X0020200Y0116885D01*
X0021380Y0118065D02*
X0021380Y0115705D01*
X0020200Y0125115D02*
X0020200Y0128655D01*
X0021380Y0127475D01*
X0022560Y0128655D01*
X0022560Y0125115D01*
X0023825Y0125115D02*
X0025005Y0125115D01*
X0024415Y0125115D02*
X0024415Y0128655D01*
X0023825Y0128655D02*
X0025005Y0128655D01*
X0026242Y0128065D02*
X0026242Y0127475D01*
X0026832Y0126885D01*
X0028012Y0126885D01*
X0028602Y0126295D01*
X0028602Y0125705D01*
X0028012Y0125115D01*
X0026832Y0125115D01*
X0026242Y0125705D01*
X0029867Y0125705D02*
X0030457Y0125115D01*
X0031637Y0125115D01*
X0032227Y0125705D01*
X0032227Y0128065D01*
X0031637Y0128655D01*
X0030457Y0128655D01*
X0029867Y0128065D01*
X0029867Y0125705D01*
X0028602Y0128065D02*
X0028012Y0128655D01*
X0026832Y0128655D01*
X0026242Y0128065D01*
X0025595Y0135115D02*
X0024415Y0135115D01*
X0023825Y0135705D01*
X0023825Y0138065D01*
X0024415Y0138655D01*
X0025595Y0138655D01*
X0026185Y0138065D01*
X0026185Y0135705D01*
X0025595Y0135115D01*
X0027450Y0135705D02*
X0028040Y0135115D01*
X0029220Y0135115D01*
X0029810Y0135705D01*
X0029810Y0136295D01*
X0029220Y0136885D01*
X0028040Y0136885D01*
X0027450Y0137475D01*
X0027450Y0138065D01*
X0028040Y0138655D01*
X0029220Y0138655D01*
X0029810Y0138065D01*
X0031075Y0138655D02*
X0032255Y0138655D01*
X0031665Y0138655D02*
X0031665Y0135115D01*
X0031075Y0135115D02*
X0032255Y0135115D01*
X0022560Y0135115D02*
X0022560Y0138655D01*
X0021380Y0137475D01*
X0020200Y0138655D01*
X0020200Y0135115D01*
X0020200Y0145115D02*
X0020200Y0148655D01*
X0021970Y0148655D01*
X0022560Y0148065D01*
X0022560Y0146885D01*
X0021970Y0146295D01*
X0020200Y0146295D01*
X0021380Y0146295D02*
X0022560Y0145115D01*
X0023825Y0145115D02*
X0026185Y0145115D01*
X0027450Y0145705D02*
X0028040Y0145115D01*
X0029220Y0145115D01*
X0029810Y0145705D01*
X0029810Y0146295D01*
X0029220Y0146885D01*
X0028040Y0146885D01*
X0027450Y0147475D01*
X0027450Y0148065D01*
X0028040Y0148655D01*
X0029220Y0148655D01*
X0029810Y0148065D01*
X0031075Y0148655D02*
X0031075Y0145115D01*
X0033435Y0145115D01*
X0032255Y0146885D02*
X0031075Y0146885D01*
X0031075Y0148655D02*
X0033435Y0148655D01*
X0034701Y0148655D02*
X0037061Y0148655D01*
X0035881Y0148655D02*
X0035881Y0145115D01*
X0026185Y0148655D02*
X0023825Y0148655D01*
X0023825Y0145115D01*
X0023825Y0146885D02*
X0025005Y0146885D01*
X0055960Y0146815D02*
X0055960Y0147995D01*
X0055960Y0147405D02*
X0059500Y0147405D01*
X0059500Y0146815D02*
X0059500Y0147995D01*
X0058910Y0149232D02*
X0059500Y0149822D01*
X0059500Y0151002D01*
X0058910Y0151592D01*
X0059500Y0152857D02*
X0057140Y0155217D01*
X0056550Y0155217D01*
X0055960Y0154627D01*
X0055960Y0153447D01*
X0056550Y0152857D01*
X0056550Y0151592D02*
X0055960Y0151002D01*
X0055960Y0149822D01*
X0056550Y0149232D01*
X0058910Y0149232D01*
X0059500Y0152857D02*
X0059500Y0155217D01*
X0062339Y0098077D02*
X0062339Y0095717D01*
X0062339Y0096897D02*
X0058799Y0096897D01*
X0059979Y0095717D01*
X0058799Y0094451D02*
X0061749Y0094451D01*
X0062339Y0093861D01*
X0062339Y0092681D01*
X0061749Y0092091D01*
X0058799Y0092091D01*
X0060100Y0071517D02*
X0060100Y0069157D01*
X0060100Y0070337D02*
X0056560Y0070337D01*
X0057740Y0069157D01*
X0057150Y0067892D02*
X0056560Y0067302D01*
X0056560Y0066122D01*
X0057150Y0065532D01*
X0059510Y0065532D01*
X0060100Y0066122D01*
X0060100Y0067302D01*
X0059510Y0067892D01*
X0060100Y0064295D02*
X0060100Y0063115D01*
X0060100Y0063705D02*
X0056560Y0063705D01*
X0056560Y0063115D02*
X0056560Y0064295D01*
D12*
X0037500Y0059915D02*
X0037500Y0049915D01*
X0037500Y0039915D01*
X0035000Y0039915D01*
X0035000Y0049915D02*
X0037500Y0049915D01*
X0037500Y0059915D02*
X0035000Y0059915D01*
D13*
X0157950Y0142865D02*
X0157950Y0149971D01*
X0162687Y0142865D01*
X0162687Y0149971D01*
X0165316Y0146418D02*
X0165316Y0144049D01*
X0166501Y0142865D01*
X0168869Y0142865D01*
X0170054Y0144049D01*
X0170054Y0146418D01*
X0168869Y0147602D01*
X0166501Y0147602D01*
X0165316Y0146418D01*
X0172683Y0147602D02*
X0175051Y0142865D01*
X0177420Y0147602D01*
X0181233Y0147602D02*
X0183602Y0147602D01*
X0184786Y0146418D01*
X0184786Y0142865D01*
X0181233Y0142865D01*
X0180049Y0144049D01*
X0181233Y0145234D01*
X0184786Y0145234D01*
X0187415Y0144049D02*
X0188599Y0142865D01*
X0190968Y0142865D01*
X0192153Y0144049D01*
X0192153Y0145234D01*
X0190968Y0146418D01*
X0188599Y0146418D01*
X0187415Y0147602D01*
X0187415Y0148787D01*
X0188599Y0149971D01*
X0190968Y0149971D01*
X0192153Y0148787D01*
X0194781Y0149971D02*
X0197150Y0147602D01*
X0199519Y0149971D01*
X0199519Y0142865D01*
X0194781Y0142865D02*
X0194781Y0149971D01*
X0202148Y0149971D02*
X0206885Y0149971D01*
X0204516Y0149971D02*
X0204516Y0142865D01*
X0209514Y0142865D02*
X0209514Y0149971D01*
X0213067Y0149971D01*
X0214251Y0148787D01*
X0214251Y0146418D01*
X0213067Y0145234D01*
X0209514Y0145234D01*
X0216880Y0145234D02*
X0219249Y0147602D01*
X0220433Y0147602D01*
X0216880Y0147602D02*
X0216880Y0142865D01*
X0223019Y0144049D02*
X0224203Y0142865D01*
X0227756Y0142865D01*
X0227756Y0146418D01*
X0226572Y0147602D01*
X0224203Y0147602D01*
X0224203Y0145234D02*
X0227756Y0145234D01*
X0230385Y0146418D02*
X0230385Y0144049D01*
X0231570Y0142865D01*
X0235123Y0142865D01*
X0238936Y0144049D02*
X0240120Y0142865D01*
X0238936Y0144049D02*
X0238936Y0148787D01*
X0237751Y0147602D02*
X0240120Y0147602D01*
X0242662Y0147602D02*
X0243847Y0147602D01*
X0243847Y0142865D01*
X0245031Y0142865D02*
X0242662Y0142865D01*
X0247573Y0144049D02*
X0248758Y0142865D01*
X0252311Y0142865D01*
X0254939Y0144049D02*
X0254939Y0146418D01*
X0256124Y0147602D01*
X0258493Y0147602D01*
X0259677Y0146418D01*
X0259677Y0145234D01*
X0254939Y0145234D01*
X0254939Y0144049D02*
X0256124Y0142865D01*
X0258493Y0142865D01*
X0262306Y0145234D02*
X0264674Y0142865D01*
X0267043Y0145234D01*
X0267043Y0149971D01*
X0269672Y0149971D02*
X0274409Y0142865D01*
X0269672Y0142865D02*
X0274409Y0149971D01*
X0262306Y0149971D02*
X0262306Y0145234D01*
X0252311Y0147602D02*
X0248758Y0147602D01*
X0247573Y0146418D01*
X0247573Y0144049D01*
X0243847Y0149971D02*
X0243847Y0151155D01*
X0235123Y0147602D02*
X0231570Y0147602D01*
X0230385Y0146418D01*
X0224203Y0145234D02*
X0223019Y0144049D01*
D14*
X0062700Y0143415D02*
X0062700Y0111415D01*
X0062698Y0111339D01*
X0062692Y0111263D01*
X0062683Y0111188D01*
X0062669Y0111113D01*
X0062652Y0111039D01*
X0062631Y0110966D01*
X0062607Y0110894D01*
X0062578Y0110823D01*
X0062547Y0110754D01*
X0062512Y0110687D01*
X0062473Y0110622D01*
X0062431Y0110558D01*
X0062386Y0110497D01*
X0062338Y0110438D01*
X0062287Y0110382D01*
X0062233Y0110328D01*
X0062177Y0110277D01*
X0062118Y0110229D01*
X0062057Y0110184D01*
X0061993Y0110142D01*
X0061928Y0110103D01*
X0061861Y0110068D01*
X0061792Y0110037D01*
X0061721Y0110008D01*
X0061649Y0109984D01*
X0061576Y0109963D01*
X0061502Y0109946D01*
X0061427Y0109932D01*
X0061352Y0109923D01*
X0061276Y0109917D01*
X0061200Y0109915D01*
X0048800Y0109915D01*
X0048724Y0109917D01*
X0048648Y0109923D01*
X0048573Y0109932D01*
X0048498Y0109946D01*
X0048424Y0109963D01*
X0048351Y0109984D01*
X0048279Y0110008D01*
X0048208Y0110037D01*
X0048139Y0110068D01*
X0048072Y0110103D01*
X0048007Y0110142D01*
X0047943Y0110184D01*
X0047882Y0110229D01*
X0047823Y0110277D01*
X0047767Y0110328D01*
X0047713Y0110382D01*
X0047662Y0110438D01*
X0047614Y0110497D01*
X0047569Y0110558D01*
X0047527Y0110622D01*
X0047488Y0110687D01*
X0047453Y0110754D01*
X0047422Y0110823D01*
X0047393Y0110894D01*
X0047369Y0110966D01*
X0047348Y0111039D01*
X0047331Y0111113D01*
X0047317Y0111188D01*
X0047308Y0111263D01*
X0047302Y0111339D01*
X0047300Y0111415D01*
X0047300Y0143415D01*
X0047302Y0143491D01*
X0047308Y0143567D01*
X0047317Y0143642D01*
X0047331Y0143717D01*
X0047348Y0143791D01*
X0047369Y0143864D01*
X0047393Y0143936D01*
X0047422Y0144007D01*
X0047453Y0144076D01*
X0047488Y0144143D01*
X0047527Y0144208D01*
X0047569Y0144272D01*
X0047614Y0144333D01*
X0047662Y0144392D01*
X0047713Y0144448D01*
X0047767Y0144502D01*
X0047823Y0144553D01*
X0047882Y0144601D01*
X0047943Y0144646D01*
X0048007Y0144688D01*
X0048072Y0144727D01*
X0048139Y0144762D01*
X0048208Y0144793D01*
X0048279Y0144822D01*
X0048351Y0144846D01*
X0048424Y0144867D01*
X0048498Y0144884D01*
X0048573Y0144898D01*
X0048648Y0144907D01*
X0048724Y0144913D01*
X0048800Y0144915D01*
X0053000Y0144915D01*
X0057000Y0144915D01*
X0061200Y0144915D01*
X0061276Y0144913D01*
X0061352Y0144907D01*
X0061427Y0144898D01*
X0061502Y0144884D01*
X0061576Y0144867D01*
X0061649Y0144846D01*
X0061721Y0144822D01*
X0061792Y0144793D01*
X0061861Y0144762D01*
X0061928Y0144727D01*
X0061993Y0144688D01*
X0062057Y0144646D01*
X0062118Y0144601D01*
X0062177Y0144553D01*
X0062233Y0144502D01*
X0062287Y0144448D01*
X0062338Y0144392D01*
X0062386Y0144333D01*
X0062431Y0144272D01*
X0062473Y0144208D01*
X0062512Y0144143D01*
X0062547Y0144076D01*
X0062578Y0144007D01*
X0062607Y0143936D01*
X0062631Y0143864D01*
X0062652Y0143791D01*
X0062669Y0143717D01*
X0062683Y0143642D01*
X0062692Y0143567D01*
X0062698Y0143491D01*
X0062700Y0143415D01*
X0057000Y0144915D02*
X0056998Y0144827D01*
X0056992Y0144738D01*
X0056982Y0144650D01*
X0056969Y0144563D01*
X0056951Y0144476D01*
X0056930Y0144390D01*
X0056905Y0144305D01*
X0056876Y0144222D01*
X0056843Y0144139D01*
X0056807Y0144059D01*
X0056768Y0143980D01*
X0056725Y0143902D01*
X0056678Y0143827D01*
X0056628Y0143754D01*
X0056575Y0143683D01*
X0056519Y0143614D01*
X0056460Y0143548D01*
X0056398Y0143485D01*
X0056334Y0143425D01*
X0056267Y0143367D01*
X0056197Y0143313D01*
X0056125Y0143261D01*
X0056051Y0143213D01*
X0055974Y0143168D01*
X0055896Y0143127D01*
X0055816Y0143089D01*
X0055735Y0143055D01*
X0055652Y0143024D01*
X0055567Y0142997D01*
X0055482Y0142974D01*
X0055396Y0142955D01*
X0055308Y0142939D01*
X0055221Y0142927D01*
X0055133Y0142919D01*
X0055044Y0142915D01*
X0054956Y0142915D01*
X0054867Y0142919D01*
X0054779Y0142927D01*
X0054692Y0142939D01*
X0054604Y0142955D01*
X0054518Y0142974D01*
X0054433Y0142997D01*
X0054348Y0143024D01*
X0054265Y0143055D01*
X0054184Y0143089D01*
X0054104Y0143127D01*
X0054026Y0143168D01*
X0053949Y0143213D01*
X0053875Y0143261D01*
X0053803Y0143313D01*
X0053733Y0143367D01*
X0053666Y0143425D01*
X0053602Y0143485D01*
X0053540Y0143548D01*
X0053481Y0143614D01*
X0053425Y0143683D01*
X0053372Y0143754D01*
X0053322Y0143827D01*
X0053275Y0143902D01*
X0053232Y0143980D01*
X0053193Y0144059D01*
X0053157Y0144139D01*
X0053124Y0144222D01*
X0053095Y0144305D01*
X0053070Y0144390D01*
X0053049Y0144476D01*
X0053031Y0144563D01*
X0053018Y0144650D01*
X0053008Y0144738D01*
X0053002Y0144827D01*
X0053000Y0144915D01*
X0044902Y0091714D02*
X0064998Y0091714D01*
X0064998Y0073116D02*
X0044902Y0073116D01*
X0048800Y0062415D02*
X0053000Y0062415D01*
X0057000Y0062415D01*
X0061200Y0062415D01*
X0061276Y0062413D01*
X0061352Y0062407D01*
X0061427Y0062398D01*
X0061502Y0062384D01*
X0061576Y0062367D01*
X0061649Y0062346D01*
X0061721Y0062322D01*
X0061792Y0062293D01*
X0061861Y0062262D01*
X0061928Y0062227D01*
X0061993Y0062188D01*
X0062057Y0062146D01*
X0062118Y0062101D01*
X0062177Y0062053D01*
X0062233Y0062002D01*
X0062287Y0061948D01*
X0062338Y0061892D01*
X0062386Y0061833D01*
X0062431Y0061772D01*
X0062473Y0061708D01*
X0062512Y0061643D01*
X0062547Y0061576D01*
X0062578Y0061507D01*
X0062607Y0061436D01*
X0062631Y0061364D01*
X0062652Y0061291D01*
X0062669Y0061217D01*
X0062683Y0061142D01*
X0062692Y0061067D01*
X0062698Y0060991D01*
X0062700Y0060915D01*
X0062700Y0028915D01*
X0062698Y0028839D01*
X0062692Y0028763D01*
X0062683Y0028688D01*
X0062669Y0028613D01*
X0062652Y0028539D01*
X0062631Y0028466D01*
X0062607Y0028394D01*
X0062578Y0028323D01*
X0062547Y0028254D01*
X0062512Y0028187D01*
X0062473Y0028122D01*
X0062431Y0028058D01*
X0062386Y0027997D01*
X0062338Y0027938D01*
X0062287Y0027882D01*
X0062233Y0027828D01*
X0062177Y0027777D01*
X0062118Y0027729D01*
X0062057Y0027684D01*
X0061993Y0027642D01*
X0061928Y0027603D01*
X0061861Y0027568D01*
X0061792Y0027537D01*
X0061721Y0027508D01*
X0061649Y0027484D01*
X0061576Y0027463D01*
X0061502Y0027446D01*
X0061427Y0027432D01*
X0061352Y0027423D01*
X0061276Y0027417D01*
X0061200Y0027415D01*
X0048800Y0027415D01*
X0048724Y0027417D01*
X0048648Y0027423D01*
X0048573Y0027432D01*
X0048498Y0027446D01*
X0048424Y0027463D01*
X0048351Y0027484D01*
X0048279Y0027508D01*
X0048208Y0027537D01*
X0048139Y0027568D01*
X0048072Y0027603D01*
X0048007Y0027642D01*
X0047943Y0027684D01*
X0047882Y0027729D01*
X0047823Y0027777D01*
X0047767Y0027828D01*
X0047713Y0027882D01*
X0047662Y0027938D01*
X0047614Y0027997D01*
X0047569Y0028058D01*
X0047527Y0028122D01*
X0047488Y0028187D01*
X0047453Y0028254D01*
X0047422Y0028323D01*
X0047393Y0028394D01*
X0047369Y0028466D01*
X0047348Y0028539D01*
X0047331Y0028613D01*
X0047317Y0028688D01*
X0047308Y0028763D01*
X0047302Y0028839D01*
X0047300Y0028915D01*
X0047300Y0060915D01*
X0047302Y0060991D01*
X0047308Y0061067D01*
X0047317Y0061142D01*
X0047331Y0061217D01*
X0047348Y0061291D01*
X0047369Y0061364D01*
X0047393Y0061436D01*
X0047422Y0061507D01*
X0047453Y0061576D01*
X0047488Y0061643D01*
X0047527Y0061708D01*
X0047569Y0061772D01*
X0047614Y0061833D01*
X0047662Y0061892D01*
X0047713Y0061948D01*
X0047767Y0062002D01*
X0047823Y0062053D01*
X0047882Y0062101D01*
X0047943Y0062146D01*
X0048007Y0062188D01*
X0048072Y0062227D01*
X0048139Y0062262D01*
X0048208Y0062293D01*
X0048279Y0062322D01*
X0048351Y0062346D01*
X0048424Y0062367D01*
X0048498Y0062384D01*
X0048573Y0062398D01*
X0048648Y0062407D01*
X0048724Y0062413D01*
X0048800Y0062415D01*
X0053000Y0062415D02*
X0053002Y0062327D01*
X0053008Y0062238D01*
X0053018Y0062150D01*
X0053031Y0062063D01*
X0053049Y0061976D01*
X0053070Y0061890D01*
X0053095Y0061805D01*
X0053124Y0061722D01*
X0053157Y0061639D01*
X0053193Y0061559D01*
X0053232Y0061480D01*
X0053275Y0061402D01*
X0053322Y0061327D01*
X0053372Y0061254D01*
X0053425Y0061183D01*
X0053481Y0061114D01*
X0053540Y0061048D01*
X0053602Y0060985D01*
X0053666Y0060925D01*
X0053733Y0060867D01*
X0053803Y0060813D01*
X0053875Y0060761D01*
X0053949Y0060713D01*
X0054026Y0060668D01*
X0054104Y0060627D01*
X0054184Y0060589D01*
X0054265Y0060555D01*
X0054348Y0060524D01*
X0054433Y0060497D01*
X0054518Y0060474D01*
X0054604Y0060455D01*
X0054692Y0060439D01*
X0054779Y0060427D01*
X0054867Y0060419D01*
X0054956Y0060415D01*
X0055044Y0060415D01*
X0055133Y0060419D01*
X0055221Y0060427D01*
X0055308Y0060439D01*
X0055396Y0060455D01*
X0055482Y0060474D01*
X0055567Y0060497D01*
X0055652Y0060524D01*
X0055735Y0060555D01*
X0055816Y0060589D01*
X0055896Y0060627D01*
X0055974Y0060668D01*
X0056051Y0060713D01*
X0056125Y0060761D01*
X0056197Y0060813D01*
X0056267Y0060867D01*
X0056334Y0060925D01*
X0056398Y0060985D01*
X0056460Y0061048D01*
X0056519Y0061114D01*
X0056575Y0061183D01*
X0056628Y0061254D01*
X0056678Y0061327D01*
X0056725Y0061402D01*
X0056768Y0061480D01*
X0056807Y0061559D01*
X0056843Y0061639D01*
X0056876Y0061722D01*
X0056905Y0061805D01*
X0056930Y0061890D01*
X0056951Y0061976D01*
X0056969Y0062063D01*
X0056982Y0062150D01*
X0056992Y0062238D01*
X0056998Y0062327D01*
X0057000Y0062415D01*
D15*
X0092106Y0061903D02*
X0095256Y0061903D01*
X0095256Y0064265D01*
X0095256Y0070565D02*
X0095256Y0072927D01*
X0092106Y0072927D01*
X0092106Y0076903D02*
X0095256Y0076903D01*
X0095256Y0079265D01*
X0095256Y0085565D02*
X0095256Y0087927D01*
X0092106Y0087927D01*
X0092106Y0091903D02*
X0095256Y0091903D01*
X0095256Y0094265D01*
X0095256Y0100565D02*
X0095256Y0102927D01*
X0092106Y0102927D01*
X0092106Y0106903D02*
X0095256Y0106903D01*
X0095256Y0109265D01*
X0095256Y0115565D02*
X0095256Y0117927D01*
X0092106Y0117927D01*
X0092106Y0121903D02*
X0095256Y0121903D01*
X0095256Y0124265D01*
X0095256Y0130565D02*
X0095256Y0132927D01*
X0092106Y0132927D01*
X0137106Y0132927D02*
X0140256Y0132927D01*
X0140256Y0130565D01*
X0140256Y0124265D02*
X0140256Y0121903D01*
X0137106Y0121903D01*
X0150535Y0131312D02*
X0154432Y0127415D01*
X0157495Y0126580D02*
X0160835Y0126580D01*
X0160835Y0129920D01*
X0157495Y0126580D01*
X0158886Y0124631D02*
X0160835Y0126580D01*
X0162784Y0128528D01*
X0165568Y0127415D02*
X0169465Y0123517D01*
X0163897Y0117950D01*
X0160000Y0121847D01*
X0156103Y0114380D02*
X0150535Y0108812D01*
X0154432Y0104915D01*
X0157495Y0104080D02*
X0160835Y0104080D01*
X0160835Y0107420D01*
X0157495Y0104080D01*
X0158886Y0102131D02*
X0160835Y0104080D01*
X0162784Y0106028D01*
X0165568Y0104915D02*
X0169465Y0101017D01*
X0163897Y0095450D01*
X0160000Y0099347D01*
X0156103Y0091880D02*
X0150535Y0086312D01*
X0154432Y0082415D01*
X0157495Y0081580D02*
X0160835Y0081580D01*
X0160835Y0084920D01*
X0157495Y0081580D01*
X0158886Y0079631D02*
X0160835Y0081580D01*
X0162784Y0083528D01*
X0165568Y0082415D02*
X0169465Y0078517D01*
X0163897Y0072950D01*
X0160000Y0076847D01*
X0156103Y0069380D02*
X0150535Y0063812D01*
X0154432Y0059915D01*
X0157495Y0059080D02*
X0160835Y0059080D01*
X0160835Y0062420D01*
X0157495Y0059080D01*
X0158886Y0057131D02*
X0160835Y0059080D01*
X0162784Y0061028D01*
X0165568Y0059915D02*
X0169465Y0056017D01*
X0163897Y0050450D01*
X0160000Y0054347D01*
X0156103Y0046880D02*
X0150535Y0041312D01*
X0154432Y0037415D01*
X0157495Y0036580D02*
X0160835Y0036580D01*
X0160835Y0039920D01*
X0157495Y0036580D01*
X0158886Y0034631D02*
X0160835Y0036580D01*
X0162784Y0038528D01*
X0165568Y0037415D02*
X0169465Y0033517D01*
X0163897Y0027950D01*
X0160000Y0031847D01*
X0173035Y0041312D02*
X0176932Y0037415D01*
X0179995Y0036580D02*
X0183335Y0036580D01*
X0183335Y0039920D01*
X0179995Y0036580D01*
X0181386Y0034631D02*
X0183335Y0036580D01*
X0185284Y0038528D01*
X0188068Y0037415D02*
X0191965Y0033517D01*
X0186397Y0027950D01*
X0182500Y0031847D01*
X0195535Y0041312D02*
X0199432Y0037415D01*
X0202495Y0036580D02*
X0205835Y0036580D01*
X0205835Y0039920D01*
X0202495Y0036580D01*
X0203886Y0034631D02*
X0205835Y0036580D01*
X0207784Y0038528D01*
X0210568Y0037415D02*
X0214465Y0033517D01*
X0208897Y0027950D01*
X0205000Y0031847D01*
X0218035Y0041312D02*
X0221932Y0037415D01*
X0224995Y0036580D02*
X0228335Y0036580D01*
X0228335Y0039920D01*
X0224995Y0036580D01*
X0226386Y0034631D02*
X0228335Y0036580D01*
X0230284Y0038528D01*
X0233068Y0037415D02*
X0236965Y0033517D01*
X0231397Y0027950D01*
X0227500Y0031847D01*
X0240535Y0041312D02*
X0244432Y0037415D01*
X0247495Y0036580D02*
X0250835Y0036580D01*
X0250835Y0039920D01*
X0247495Y0036580D01*
X0248886Y0034631D02*
X0250835Y0036580D01*
X0252784Y0038528D01*
X0255568Y0037415D02*
X0259465Y0033517D01*
X0253897Y0027950D01*
X0250000Y0031847D01*
X0240535Y0041312D02*
X0246103Y0046880D01*
X0250000Y0042983D01*
X0263035Y0041312D02*
X0266932Y0037415D01*
X0269995Y0036580D02*
X0273335Y0036580D01*
X0273335Y0039920D01*
X0269995Y0036580D01*
X0271386Y0034631D02*
X0273335Y0036580D01*
X0275284Y0038528D01*
X0278068Y0037415D02*
X0281965Y0033517D01*
X0276397Y0027950D01*
X0272500Y0031847D01*
X0263035Y0041312D02*
X0268603Y0046880D01*
X0272500Y0042983D01*
X0276397Y0050450D02*
X0272500Y0054347D01*
X0271386Y0057131D02*
X0273335Y0059080D01*
X0269995Y0059080D01*
X0273335Y0062420D01*
X0273335Y0059080D01*
X0275284Y0061028D01*
X0278068Y0059915D02*
X0281965Y0056017D01*
X0276397Y0050450D01*
X0285535Y0041312D02*
X0291103Y0046880D01*
X0295000Y0042983D01*
X0295835Y0039920D02*
X0292495Y0036580D01*
X0295835Y0036580D01*
X0295835Y0039920D01*
X0297784Y0038528D02*
X0295835Y0036580D01*
X0293886Y0034631D01*
X0295000Y0031847D02*
X0298897Y0027950D01*
X0304465Y0033517D01*
X0300568Y0037415D01*
X0289432Y0037415D02*
X0285535Y0041312D01*
X0295000Y0054347D02*
X0298897Y0050450D01*
X0304465Y0056017D01*
X0300568Y0059915D01*
X0297784Y0061028D02*
X0295835Y0059080D01*
X0292495Y0059080D01*
X0295835Y0062420D01*
X0295835Y0059080D01*
X0293886Y0057131D01*
X0289432Y0059915D02*
X0285535Y0063812D01*
X0291103Y0069380D01*
X0295000Y0065483D01*
X0298897Y0072950D02*
X0295000Y0076847D01*
X0293886Y0079631D02*
X0295835Y0081580D01*
X0292495Y0081580D01*
X0295835Y0084920D01*
X0295835Y0081580D01*
X0297784Y0083528D01*
X0300568Y0082415D02*
X0304465Y0078517D01*
X0298897Y0072950D01*
X0289432Y0082415D02*
X0285535Y0086312D01*
X0291103Y0091880D01*
X0295000Y0087983D01*
X0298897Y0095450D02*
X0295000Y0099347D01*
X0293886Y0102131D02*
X0295835Y0104080D01*
X0292495Y0104080D01*
X0295835Y0107420D01*
X0295835Y0104080D01*
X0297784Y0106028D01*
X0300568Y0104915D02*
X0304465Y0101017D01*
X0298897Y0095450D01*
X0289432Y0104915D02*
X0285535Y0108812D01*
X0291103Y0114380D01*
X0295000Y0110483D01*
X0298897Y0117950D02*
X0295000Y0121847D01*
X0293886Y0124631D02*
X0295835Y0126580D01*
X0292495Y0126580D01*
X0295835Y0129920D01*
X0295835Y0126580D01*
X0297784Y0128528D01*
X0300568Y0127415D02*
X0304465Y0123517D01*
X0298897Y0117950D01*
X0289432Y0127415D02*
X0285535Y0131312D01*
X0291103Y0136880D01*
X0295000Y0132983D01*
X0281965Y0123517D02*
X0276397Y0117950D01*
X0272500Y0121847D01*
X0271386Y0124631D02*
X0273335Y0126580D01*
X0269995Y0126580D01*
X0273335Y0129920D01*
X0273335Y0126580D01*
X0275284Y0128528D01*
X0278068Y0127415D02*
X0281965Y0123517D01*
X0266932Y0127415D02*
X0263035Y0131312D01*
X0268603Y0136880D01*
X0272500Y0132983D01*
X0259465Y0123517D02*
X0255568Y0127415D01*
X0252784Y0128528D02*
X0250835Y0126580D01*
X0247495Y0126580D01*
X0250835Y0129920D01*
X0250835Y0126580D01*
X0248886Y0124631D01*
X0250000Y0121847D02*
X0253897Y0117950D01*
X0259465Y0123517D01*
X0244432Y0127415D02*
X0240535Y0131312D01*
X0246103Y0136880D01*
X0250000Y0132983D01*
X0236965Y0123517D02*
X0233068Y0127415D01*
X0230284Y0128528D02*
X0228335Y0126580D01*
X0224995Y0126580D01*
X0228335Y0129920D01*
X0228335Y0126580D01*
X0226386Y0124631D01*
X0227500Y0121847D02*
X0231397Y0117950D01*
X0236965Y0123517D01*
X0221932Y0127415D02*
X0218035Y0131312D01*
X0223603Y0136880D01*
X0227500Y0132983D01*
X0214465Y0123517D02*
X0210568Y0127415D01*
X0207784Y0128528D02*
X0205835Y0126580D01*
X0202495Y0126580D01*
X0205835Y0129920D01*
X0205835Y0126580D01*
X0203886Y0124631D01*
X0205000Y0121847D02*
X0208897Y0117950D01*
X0214465Y0123517D01*
X0199432Y0127415D02*
X0195535Y0131312D01*
X0201103Y0136880D01*
X0205000Y0132983D01*
X0191965Y0123517D02*
X0186397Y0117950D01*
X0182500Y0121847D01*
X0181386Y0124631D02*
X0183335Y0126580D01*
X0179995Y0126580D01*
X0183335Y0129920D01*
X0183335Y0126580D01*
X0185284Y0128528D01*
X0188068Y0127415D02*
X0191965Y0123517D01*
X0176932Y0127415D02*
X0173035Y0131312D01*
X0178603Y0136880D01*
X0182500Y0132983D01*
X0160000Y0132983D02*
X0156103Y0136880D01*
X0150535Y0131312D01*
X0156103Y0114380D02*
X0160000Y0110483D01*
X0173035Y0108812D02*
X0176932Y0104915D01*
X0179995Y0104080D02*
X0183335Y0104080D01*
X0183335Y0107420D01*
X0179995Y0104080D01*
X0181386Y0102131D02*
X0183335Y0104080D01*
X0185284Y0106028D01*
X0188068Y0104915D02*
X0191965Y0101017D01*
X0186397Y0095450D01*
X0182500Y0099347D01*
X0178603Y0091880D02*
X0173035Y0086312D01*
X0176932Y0082415D01*
X0179995Y0081580D02*
X0183335Y0081580D01*
X0183335Y0084920D01*
X0179995Y0081580D01*
X0181386Y0079631D02*
X0183335Y0081580D01*
X0185284Y0083528D01*
X0188068Y0082415D02*
X0191965Y0078517D01*
X0186397Y0072950D01*
X0182500Y0076847D01*
X0178603Y0069380D02*
X0173035Y0063812D01*
X0176932Y0059915D01*
X0179995Y0059080D02*
X0183335Y0059080D01*
X0183335Y0062420D01*
X0179995Y0059080D01*
X0181386Y0057131D02*
X0183335Y0059080D01*
X0185284Y0061028D01*
X0188068Y0059915D02*
X0191965Y0056017D01*
X0186397Y0050450D01*
X0182500Y0054347D01*
X0178603Y0046880D02*
X0173035Y0041312D01*
X0178603Y0046880D02*
X0182500Y0042983D01*
X0195535Y0041312D02*
X0201103Y0046880D01*
X0205000Y0042983D01*
X0218035Y0041312D02*
X0223603Y0046880D01*
X0227500Y0042983D01*
X0231397Y0050450D02*
X0227500Y0054347D01*
X0226386Y0057131D02*
X0228335Y0059080D01*
X0224995Y0059080D01*
X0228335Y0062420D01*
X0228335Y0059080D01*
X0230284Y0061028D01*
X0233068Y0059915D02*
X0236965Y0056017D01*
X0231397Y0050450D01*
X0214465Y0056017D02*
X0208897Y0050450D01*
X0205000Y0054347D01*
X0203886Y0057131D02*
X0205835Y0059080D01*
X0202495Y0059080D01*
X0205835Y0062420D01*
X0205835Y0059080D01*
X0207784Y0061028D01*
X0210568Y0059915D02*
X0214465Y0056017D01*
X0221932Y0059915D02*
X0218035Y0063812D01*
X0223603Y0069380D01*
X0227500Y0065483D01*
X0240535Y0063812D02*
X0244432Y0059915D01*
X0247495Y0059080D02*
X0250835Y0059080D01*
X0250835Y0062420D01*
X0247495Y0059080D01*
X0248886Y0057131D02*
X0250835Y0059080D01*
X0252784Y0061028D01*
X0255568Y0059915D02*
X0259465Y0056017D01*
X0253897Y0050450D01*
X0250000Y0054347D01*
X0240535Y0063812D02*
X0246103Y0069380D01*
X0250000Y0065483D01*
X0263035Y0063812D02*
X0266932Y0059915D01*
X0263035Y0063812D02*
X0268603Y0069380D01*
X0272500Y0065483D01*
X0276397Y0072950D02*
X0272500Y0076847D01*
X0271386Y0079631D02*
X0273335Y0081580D01*
X0269995Y0081580D01*
X0273335Y0084920D01*
X0273335Y0081580D01*
X0275284Y0083528D01*
X0278068Y0082415D02*
X0281965Y0078517D01*
X0276397Y0072950D01*
X0266932Y0082415D02*
X0263035Y0086312D01*
X0268603Y0091880D01*
X0272500Y0087983D01*
X0276397Y0095450D02*
X0272500Y0099347D01*
X0271386Y0102131D02*
X0273335Y0104080D01*
X0269995Y0104080D01*
X0273335Y0107420D01*
X0273335Y0104080D01*
X0275284Y0106028D01*
X0278068Y0104915D02*
X0281965Y0101017D01*
X0276397Y0095450D01*
X0266932Y0104915D02*
X0263035Y0108812D01*
X0268603Y0114380D01*
X0272500Y0110483D01*
X0259465Y0101017D02*
X0255568Y0104915D01*
X0252784Y0106028D02*
X0250835Y0104080D01*
X0247495Y0104080D01*
X0250835Y0107420D01*
X0250835Y0104080D01*
X0248886Y0102131D01*
X0250000Y0099347D02*
X0253897Y0095450D01*
X0259465Y0101017D01*
X0244432Y0104915D02*
X0240535Y0108812D01*
X0246103Y0114380D01*
X0250000Y0110483D01*
X0236965Y0101017D02*
X0233068Y0104915D01*
X0230284Y0106028D02*
X0228335Y0104080D01*
X0224995Y0104080D01*
X0228335Y0107420D01*
X0228335Y0104080D01*
X0226386Y0102131D01*
X0227500Y0099347D02*
X0231397Y0095450D01*
X0236965Y0101017D01*
X0221932Y0104915D02*
X0218035Y0108812D01*
X0223603Y0114380D01*
X0227500Y0110483D01*
X0214465Y0101017D02*
X0210568Y0104915D01*
X0207784Y0106028D02*
X0205835Y0104080D01*
X0202495Y0104080D01*
X0205835Y0107420D01*
X0205835Y0104080D01*
X0203886Y0102131D01*
X0205000Y0099347D02*
X0208897Y0095450D01*
X0214465Y0101017D01*
X0199432Y0104915D02*
X0195535Y0108812D01*
X0201103Y0114380D01*
X0205000Y0110483D01*
X0182500Y0110483D02*
X0178603Y0114380D01*
X0173035Y0108812D01*
X0178603Y0091880D02*
X0182500Y0087983D01*
X0195535Y0086312D02*
X0199432Y0082415D01*
X0202495Y0081580D02*
X0205835Y0081580D01*
X0205835Y0084920D01*
X0202495Y0081580D01*
X0203886Y0079631D02*
X0205835Y0081580D01*
X0207784Y0083528D01*
X0210568Y0082415D02*
X0214465Y0078517D01*
X0208897Y0072950D01*
X0205000Y0076847D01*
X0201103Y0069380D02*
X0195535Y0063812D01*
X0199432Y0059915D01*
X0205000Y0065483D02*
X0201103Y0069380D01*
X0182500Y0065483D02*
X0178603Y0069380D01*
X0160000Y0065483D02*
X0156103Y0069380D01*
X0140256Y0065427D02*
X0140256Y0063065D01*
X0140256Y0065427D02*
X0137106Y0065427D01*
X0140256Y0056765D02*
X0140256Y0054403D01*
X0137106Y0054403D01*
X0156103Y0046880D02*
X0160000Y0042983D01*
X0140256Y0042927D02*
X0140256Y0040565D01*
X0140256Y0042927D02*
X0137106Y0042927D01*
X0140256Y0034265D02*
X0140256Y0031903D01*
X0137106Y0031903D01*
X0095256Y0031903D02*
X0092106Y0031903D01*
X0095256Y0031903D02*
X0095256Y0034265D01*
X0095256Y0040565D02*
X0095256Y0042927D01*
X0092106Y0042927D01*
X0092106Y0046903D02*
X0095256Y0046903D01*
X0095256Y0049265D01*
X0095256Y0055565D02*
X0095256Y0057927D01*
X0092106Y0057927D01*
X0137106Y0076903D02*
X0140256Y0076903D01*
X0140256Y0079265D01*
X0140256Y0085565D02*
X0140256Y0087927D01*
X0137106Y0087927D01*
X0156103Y0091880D02*
X0160000Y0087983D01*
X0140256Y0099403D02*
X0137106Y0099403D01*
X0140256Y0099403D02*
X0140256Y0101765D01*
X0140256Y0108065D02*
X0140256Y0110427D01*
X0137106Y0110427D01*
X0195535Y0086312D02*
X0201103Y0091880D01*
X0205000Y0087983D01*
X0218035Y0086312D02*
X0221932Y0082415D01*
X0224995Y0081580D02*
X0228335Y0081580D01*
X0228335Y0084920D01*
X0224995Y0081580D01*
X0226386Y0079631D02*
X0228335Y0081580D01*
X0230284Y0083528D01*
X0233068Y0082415D02*
X0236965Y0078517D01*
X0231397Y0072950D01*
X0227500Y0076847D01*
X0218035Y0086312D02*
X0223603Y0091880D01*
X0227500Y0087983D01*
X0240535Y0086312D02*
X0244432Y0082415D01*
X0247495Y0081580D02*
X0250835Y0081580D01*
X0250835Y0084920D01*
X0247495Y0081580D01*
X0248886Y0079631D02*
X0250835Y0081580D01*
X0252784Y0083528D01*
X0255568Y0082415D02*
X0259465Y0078517D01*
X0253897Y0072950D01*
X0250000Y0076847D01*
X0240535Y0086312D02*
X0246103Y0091880D01*
X0250000Y0087983D01*
X0047535Y0089515D02*
X0047537Y0089562D01*
X0047543Y0089609D01*
X0047553Y0089656D01*
X0047566Y0089701D01*
X0047584Y0089745D01*
X0047605Y0089787D01*
X0047629Y0089828D01*
X0047657Y0089866D01*
X0047688Y0089902D01*
X0047722Y0089935D01*
X0047758Y0089965D01*
X0047797Y0089992D01*
X0047838Y0090016D01*
X0047881Y0090036D01*
X0047925Y0090052D01*
X0047971Y0090065D01*
X0048017Y0090074D01*
X0048065Y0090079D01*
X0048112Y0090080D01*
X0048159Y0090077D01*
X0048206Y0090070D01*
X0048252Y0090059D01*
X0048297Y0090045D01*
X0048341Y0090026D01*
X0048382Y0090004D01*
X0048422Y0089979D01*
X0048460Y0089950D01*
X0048495Y0089919D01*
X0048528Y0089884D01*
X0048557Y0089847D01*
X0048583Y0089808D01*
X0048606Y0089766D01*
X0048625Y0089723D01*
X0048641Y0089678D01*
X0048653Y0089632D01*
X0048661Y0089586D01*
X0048665Y0089539D01*
X0048665Y0089491D01*
X0048661Y0089444D01*
X0048653Y0089398D01*
X0048641Y0089352D01*
X0048625Y0089307D01*
X0048606Y0089264D01*
X0048583Y0089222D01*
X0048557Y0089183D01*
X0048528Y0089146D01*
X0048495Y0089111D01*
X0048460Y0089080D01*
X0048422Y0089051D01*
X0048383Y0089026D01*
X0048341Y0089004D01*
X0048297Y0088985D01*
X0048252Y0088971D01*
X0048206Y0088960D01*
X0048159Y0088953D01*
X0048112Y0088950D01*
X0048065Y0088951D01*
X0048017Y0088956D01*
X0047971Y0088965D01*
X0047925Y0088978D01*
X0047881Y0088994D01*
X0047838Y0089014D01*
X0047797Y0089038D01*
X0047758Y0089065D01*
X0047722Y0089095D01*
X0047688Y0089128D01*
X0047657Y0089164D01*
X0047629Y0089202D01*
X0047605Y0089243D01*
X0047584Y0089285D01*
X0047566Y0089329D01*
X0047553Y0089374D01*
X0047543Y0089421D01*
X0047537Y0089468D01*
X0047535Y0089515D01*
D16*
X0115250Y0093290D02*
X0115250Y0095165D01*
X0124750Y0095165D01*
X0124750Y0093290D01*
X0124750Y0099665D02*
X0115250Y0099665D01*
X0115250Y0101540D01*
X0124750Y0101540D02*
X0124750Y0099665D01*
X0124750Y0118290D02*
X0124750Y0120165D01*
X0115250Y0120165D01*
X0115250Y0118290D01*
X0115250Y0124665D02*
X0124750Y0124665D01*
X0124750Y0126540D01*
X0115250Y0126540D02*
X0115250Y0124665D01*
X0115250Y0143290D02*
X0115250Y0145165D01*
X0124750Y0145165D01*
X0124750Y0143290D01*
X0124750Y0076540D02*
X0124750Y0074665D01*
X0115250Y0074665D01*
X0115250Y0076540D01*
X0115250Y0070165D02*
X0124750Y0070165D01*
X0124750Y0068290D01*
X0115250Y0068290D02*
X0115250Y0070165D01*
X0115250Y0051540D02*
X0115250Y0049665D01*
X0124750Y0049665D01*
X0124750Y0051540D01*
X0124750Y0040165D02*
X0115250Y0040165D01*
X0115250Y0038290D01*
X0124750Y0038290D02*
X0124750Y0040165D01*
X0124750Y0021540D02*
X0124750Y0019665D01*
X0115250Y0019665D01*
X0115250Y0021540D01*
X0063250Y0020265D02*
X0063250Y0010765D01*
X0061375Y0010765D01*
X0044625Y0010765D02*
X0042750Y0010765D01*
X0042750Y0020265D01*
X0044625Y0020265D01*
X0061375Y0020265D02*
X0063250Y0020265D01*
D17*
X0068887Y0018366D02*
X0068887Y0015940D01*
X0068887Y0017153D02*
X0065247Y0017153D01*
X0066460Y0015940D01*
X0065854Y0014741D02*
X0065247Y0014135D01*
X0065247Y0012921D01*
X0065854Y0012315D01*
X0068280Y0012315D01*
X0068887Y0012921D01*
X0068887Y0014135D01*
X0068280Y0014741D01*
X0099647Y0030546D02*
X0099647Y0031760D01*
X0100254Y0032366D01*
X0102680Y0032366D01*
X0103287Y0031760D01*
X0103287Y0030546D01*
X0102680Y0029939D01*
X0100254Y0029939D01*
X0099647Y0030546D01*
X0102074Y0031153D02*
X0103287Y0032366D01*
X0103287Y0033565D02*
X0103287Y0035991D01*
X0103287Y0037190D02*
X0100860Y0039616D01*
X0100254Y0039616D01*
X0099647Y0039010D01*
X0099647Y0037796D01*
X0100254Y0037190D01*
X0103287Y0037190D02*
X0103287Y0039616D01*
X0103287Y0034778D02*
X0099647Y0034778D01*
X0100860Y0033565D01*
X0111710Y0031117D02*
X0111710Y0028690D01*
X0113530Y0028690D01*
X0112923Y0029903D01*
X0112923Y0030510D01*
X0113530Y0031117D01*
X0114743Y0031117D01*
X0115350Y0030510D01*
X0115350Y0029297D01*
X0114743Y0028690D01*
X0115350Y0027492D02*
X0114137Y0026278D01*
X0114137Y0026885D02*
X0114137Y0025065D01*
X0115350Y0025065D02*
X0111710Y0025065D01*
X0111710Y0026885D01*
X0112317Y0027492D01*
X0113530Y0027492D01*
X0114137Y0026885D01*
X0144647Y0034171D02*
X0145254Y0033565D01*
X0147680Y0033565D01*
X0148287Y0034171D01*
X0148287Y0035385D01*
X0147680Y0035991D01*
X0145254Y0035991D01*
X0144647Y0035385D01*
X0144647Y0034171D01*
X0147074Y0034778D02*
X0148287Y0035991D01*
X0147680Y0037190D02*
X0148287Y0037796D01*
X0148287Y0039010D01*
X0147680Y0039616D01*
X0146467Y0039616D01*
X0145860Y0039010D01*
X0145860Y0038403D01*
X0146467Y0037190D01*
X0144647Y0037190D01*
X0144647Y0039616D01*
X0161626Y0043779D02*
X0163342Y0042063D01*
X0164190Y0041216D02*
X0165906Y0039500D01*
X0166753Y0038652D02*
X0168040Y0037365D01*
X0168898Y0037365D01*
X0170614Y0039081D01*
X0170614Y0039939D01*
X0169327Y0041226D01*
X0166753Y0038652D01*
X0164190Y0041216D02*
X0166764Y0043789D01*
X0168480Y0042073D01*
X0166335Y0041645D02*
X0165477Y0042502D01*
X0164200Y0046353D02*
X0161626Y0043779D01*
X0171461Y0038234D02*
X0172319Y0038234D01*
X0173177Y0037376D01*
X0173177Y0036518D01*
X0172748Y0036089D01*
X0171890Y0036089D01*
X0171890Y0035231D01*
X0171461Y0034802D01*
X0170603Y0034802D01*
X0169745Y0035660D01*
X0169745Y0036518D01*
X0171461Y0036518D02*
X0171890Y0036089D01*
X0173167Y0034812D02*
X0174454Y0034383D01*
X0174883Y0033954D01*
X0174883Y0033096D01*
X0174025Y0032238D01*
X0173167Y0032238D01*
X0172309Y0033096D01*
X0172309Y0033954D01*
X0173167Y0034812D02*
X0174454Y0036099D01*
X0176170Y0034383D01*
X0186690Y0041216D02*
X0188406Y0039500D01*
X0189253Y0038652D02*
X0190540Y0037365D01*
X0191398Y0037365D01*
X0193114Y0039081D01*
X0193114Y0039939D01*
X0191827Y0041226D01*
X0189253Y0038652D01*
X0186690Y0041216D02*
X0189264Y0043789D01*
X0190980Y0042073D01*
X0188835Y0041645D02*
X0187977Y0042502D01*
X0185842Y0042063D02*
X0184126Y0043779D01*
X0186700Y0046353D01*
X0193961Y0038234D02*
X0194819Y0038234D01*
X0195677Y0037376D01*
X0195677Y0036518D01*
X0195248Y0036089D01*
X0194390Y0036089D01*
X0194390Y0035231D01*
X0193961Y0034802D01*
X0193103Y0034802D01*
X0192245Y0035660D01*
X0192245Y0036518D01*
X0193961Y0036518D02*
X0194390Y0036089D01*
X0195667Y0034812D02*
X0197383Y0033096D01*
X0195667Y0032238D02*
X0198241Y0034812D01*
X0195667Y0034812D01*
X0209190Y0041216D02*
X0210906Y0039500D01*
X0211753Y0038652D02*
X0213040Y0037365D01*
X0213898Y0037365D01*
X0215614Y0039081D01*
X0215614Y0039939D01*
X0214327Y0041226D01*
X0211753Y0038652D01*
X0209190Y0041216D02*
X0211764Y0043789D01*
X0213480Y0042073D01*
X0211335Y0041645D02*
X0210477Y0042502D01*
X0208342Y0042063D02*
X0206626Y0043779D01*
X0209200Y0046353D01*
X0216461Y0038234D02*
X0217319Y0038234D01*
X0218177Y0037376D01*
X0218177Y0036518D01*
X0217748Y0036089D01*
X0216890Y0036089D01*
X0216890Y0035231D01*
X0216461Y0034802D01*
X0215603Y0034802D01*
X0214745Y0035660D01*
X0214745Y0036518D01*
X0216461Y0036518D02*
X0216890Y0036089D01*
X0217309Y0033954D02*
X0217309Y0033096D01*
X0218167Y0032238D01*
X0219025Y0032238D01*
X0219454Y0032667D01*
X0219454Y0033525D01*
X0219025Y0033954D01*
X0219454Y0033525D02*
X0220312Y0033525D01*
X0220741Y0033954D01*
X0220741Y0034812D01*
X0219883Y0035670D01*
X0219025Y0035670D01*
X0229126Y0043779D02*
X0230842Y0042063D01*
X0231690Y0041216D02*
X0233406Y0039500D01*
X0234253Y0038652D02*
X0235540Y0037365D01*
X0236398Y0037365D01*
X0238114Y0039081D01*
X0238114Y0039939D01*
X0236827Y0041226D01*
X0234253Y0038652D01*
X0231690Y0041216D02*
X0234264Y0043789D01*
X0235980Y0042073D01*
X0233835Y0041645D02*
X0232977Y0042502D01*
X0231700Y0046353D02*
X0229126Y0043779D01*
X0238961Y0038234D02*
X0239819Y0038234D01*
X0240677Y0037376D01*
X0240677Y0036518D01*
X0240248Y0036089D01*
X0239390Y0036089D01*
X0239390Y0035231D01*
X0238961Y0034802D01*
X0238103Y0034802D01*
X0237245Y0035660D01*
X0237245Y0036518D01*
X0238961Y0036518D02*
X0239390Y0036089D01*
X0241525Y0035670D02*
X0242383Y0035670D01*
X0243241Y0034812D01*
X0243241Y0033954D01*
X0242812Y0033525D01*
X0239380Y0033525D01*
X0241096Y0031809D01*
X0254190Y0041216D02*
X0255906Y0039500D01*
X0256753Y0038652D02*
X0258040Y0037365D01*
X0258898Y0037365D01*
X0260614Y0039081D01*
X0260614Y0039939D01*
X0259327Y0041226D01*
X0256753Y0038652D01*
X0254190Y0041216D02*
X0256764Y0043789D01*
X0258480Y0042073D01*
X0256335Y0041645D02*
X0255477Y0042502D01*
X0253342Y0042063D02*
X0251626Y0043779D01*
X0254200Y0046353D01*
X0261461Y0038234D02*
X0262319Y0038234D01*
X0263177Y0037376D01*
X0263177Y0036518D01*
X0262748Y0036089D01*
X0261890Y0036089D01*
X0261890Y0035231D01*
X0261461Y0034802D01*
X0260603Y0034802D01*
X0259745Y0035660D01*
X0259745Y0036518D01*
X0261461Y0036518D02*
X0261890Y0036089D01*
X0263596Y0035241D02*
X0265312Y0035241D01*
X0262738Y0032667D01*
X0261880Y0033525D02*
X0263596Y0031809D01*
X0276690Y0041216D02*
X0278406Y0039500D01*
X0279253Y0038652D02*
X0280540Y0037365D01*
X0281398Y0037365D01*
X0283114Y0039081D01*
X0283114Y0039939D01*
X0281827Y0041226D01*
X0279253Y0038652D01*
X0276690Y0041216D02*
X0279264Y0043789D01*
X0280980Y0042073D01*
X0278835Y0041645D02*
X0277977Y0042502D01*
X0275842Y0042063D02*
X0274126Y0043779D01*
X0276700Y0046353D01*
X0283961Y0038234D02*
X0284819Y0038234D01*
X0285677Y0037376D01*
X0285677Y0036518D01*
X0285248Y0036089D01*
X0284390Y0036089D01*
X0284390Y0035231D01*
X0283961Y0034802D01*
X0283103Y0034802D01*
X0282245Y0035660D01*
X0282245Y0036518D01*
X0283961Y0036518D02*
X0284390Y0036089D01*
X0284809Y0033954D02*
X0288241Y0033954D01*
X0286525Y0032238D01*
X0285667Y0032238D01*
X0284809Y0033096D01*
X0284809Y0033954D01*
X0286525Y0035670D01*
X0287383Y0035670D01*
X0288241Y0034812D01*
X0288241Y0033954D01*
X0299190Y0041216D02*
X0300906Y0039500D01*
X0301753Y0038652D02*
X0303040Y0037365D01*
X0303898Y0037365D01*
X0305614Y0039081D01*
X0305614Y0039939D01*
X0304327Y0041226D01*
X0301753Y0038652D01*
X0299190Y0041216D02*
X0301764Y0043789D01*
X0303480Y0042073D01*
X0301335Y0041645D02*
X0300477Y0042502D01*
X0298342Y0042063D02*
X0296626Y0043779D01*
X0299200Y0046353D01*
X0306461Y0038234D02*
X0307319Y0038234D01*
X0308177Y0037376D01*
X0308177Y0036518D01*
X0307748Y0036089D01*
X0304316Y0036089D01*
X0306032Y0034373D01*
X0307309Y0033954D02*
X0307309Y0033096D01*
X0308167Y0032238D01*
X0309025Y0032238D01*
X0310741Y0033954D01*
X0310741Y0034812D01*
X0309883Y0035670D01*
X0309025Y0035670D01*
X0308596Y0035241D01*
X0308596Y0034383D01*
X0309883Y0033096D01*
X0308596Y0054309D02*
X0306880Y0056025D01*
X0310312Y0056025D01*
X0310741Y0056454D01*
X0310741Y0057312D01*
X0309883Y0058170D01*
X0309025Y0058170D01*
X0308177Y0059018D02*
X0308177Y0059876D01*
X0307319Y0060734D01*
X0306461Y0060734D01*
X0305614Y0061581D02*
X0305614Y0062439D01*
X0304327Y0063726D01*
X0301753Y0061152D01*
X0303040Y0059865D01*
X0303898Y0059865D01*
X0305614Y0061581D01*
X0304316Y0058589D02*
X0307748Y0058589D01*
X0308177Y0059018D01*
X0306032Y0056873D02*
X0304316Y0058589D01*
X0300906Y0062000D02*
X0299190Y0063716D01*
X0301764Y0066289D01*
X0303480Y0064573D01*
X0301335Y0064145D02*
X0300477Y0065002D01*
X0298342Y0064563D02*
X0296626Y0066279D01*
X0299200Y0068853D01*
X0308167Y0077238D02*
X0307309Y0078096D01*
X0307309Y0078954D01*
X0308167Y0079812D02*
X0309454Y0079383D01*
X0309883Y0078954D01*
X0309883Y0078096D01*
X0309025Y0077238D01*
X0308167Y0077238D01*
X0308167Y0079812D02*
X0309454Y0081099D01*
X0311170Y0079383D01*
X0307748Y0082805D02*
X0306032Y0082805D01*
X0305614Y0084081D02*
X0305614Y0084939D01*
X0304327Y0086226D01*
X0301753Y0083652D01*
X0303040Y0082365D01*
X0303898Y0082365D01*
X0305614Y0084081D01*
X0307748Y0082805D02*
X0305174Y0080231D01*
X0304316Y0081089D02*
X0306032Y0079373D01*
X0300906Y0084500D02*
X0299190Y0086216D01*
X0301764Y0088789D01*
X0303480Y0087073D01*
X0301335Y0086645D02*
X0300477Y0087502D01*
X0298342Y0087063D02*
X0296626Y0088779D01*
X0299200Y0091353D01*
X0283114Y0084939D02*
X0283114Y0084081D01*
X0281398Y0082365D01*
X0280540Y0082365D01*
X0279253Y0083652D01*
X0281827Y0086226D01*
X0283114Y0084939D01*
X0280980Y0087073D02*
X0279264Y0088789D01*
X0276690Y0086216D01*
X0278406Y0084500D01*
X0278835Y0086645D02*
X0277977Y0087502D01*
X0275842Y0087063D02*
X0274126Y0088779D01*
X0276700Y0091353D01*
X0265741Y0101454D02*
X0264025Y0099738D01*
X0263167Y0099738D01*
X0262309Y0100596D01*
X0262309Y0101454D01*
X0265741Y0101454D01*
X0265741Y0102312D01*
X0264883Y0103170D01*
X0264025Y0103170D01*
X0262309Y0101454D01*
X0261032Y0101873D02*
X0259316Y0103589D01*
X0260174Y0102731D02*
X0262748Y0105305D01*
X0261032Y0105305D01*
X0260614Y0106581D02*
X0260614Y0107439D01*
X0259327Y0108726D01*
X0256753Y0106152D01*
X0258040Y0104865D01*
X0258898Y0104865D01*
X0260614Y0106581D01*
X0258480Y0109573D02*
X0256764Y0111289D01*
X0254190Y0108716D01*
X0255906Y0107000D01*
X0256335Y0109144D02*
X0255477Y0110002D01*
X0253342Y0109563D02*
X0251626Y0111279D01*
X0254200Y0113853D01*
X0240248Y0105305D02*
X0237674Y0102731D01*
X0236816Y0103589D02*
X0238532Y0101873D01*
X0239380Y0101025D02*
X0241096Y0099309D01*
X0240238Y0100167D02*
X0242812Y0102741D01*
X0241096Y0102741D01*
X0240248Y0105305D02*
X0238532Y0105305D01*
X0238114Y0106581D02*
X0238114Y0107439D01*
X0236827Y0108726D01*
X0234253Y0106152D01*
X0235540Y0104865D01*
X0236398Y0104865D01*
X0238114Y0106581D01*
X0233406Y0107000D02*
X0231690Y0108716D01*
X0234264Y0111289D01*
X0235980Y0109573D01*
X0233835Y0109144D02*
X0232977Y0110002D01*
X0230842Y0109563D02*
X0229126Y0111279D01*
X0231700Y0113853D01*
X0215614Y0107439D02*
X0215614Y0106581D01*
X0213898Y0104865D01*
X0213040Y0104865D01*
X0211753Y0106152D01*
X0214327Y0108726D01*
X0215614Y0107439D01*
X0213480Y0109573D02*
X0211764Y0111289D01*
X0209190Y0108716D01*
X0210906Y0107000D01*
X0216032Y0105305D02*
X0217748Y0105305D01*
X0215174Y0102731D01*
X0214316Y0103589D02*
X0216032Y0101873D01*
X0216880Y0101025D02*
X0218596Y0099309D01*
X0216880Y0101025D02*
X0220312Y0101025D01*
X0220741Y0101454D01*
X0220741Y0102312D01*
X0219883Y0103170D01*
X0219025Y0103170D01*
X0211335Y0109144D02*
X0210477Y0110002D01*
X0208342Y0109563D02*
X0206626Y0111279D01*
X0209200Y0113853D01*
X0193114Y0107439D02*
X0193114Y0106581D01*
X0191398Y0104865D01*
X0190540Y0104865D01*
X0189253Y0106152D01*
X0191827Y0108726D01*
X0193114Y0107439D01*
X0190980Y0109573D02*
X0189264Y0111289D01*
X0186690Y0108716D01*
X0188406Y0107000D01*
X0193532Y0105305D02*
X0195248Y0105305D01*
X0192674Y0102731D01*
X0191816Y0103589D02*
X0193532Y0101873D01*
X0194809Y0101454D02*
X0194809Y0100596D01*
X0195667Y0099738D01*
X0196525Y0099738D01*
X0196954Y0100167D01*
X0196954Y0101025D01*
X0196525Y0101454D01*
X0196954Y0101025D02*
X0197812Y0101025D01*
X0198241Y0101454D01*
X0198241Y0102312D01*
X0197383Y0103170D01*
X0196525Y0103170D01*
X0188835Y0109144D02*
X0187977Y0110002D01*
X0185842Y0109563D02*
X0184126Y0111279D01*
X0186700Y0113853D01*
X0170614Y0107439D02*
X0170614Y0106581D01*
X0168898Y0104865D01*
X0168040Y0104865D01*
X0166753Y0106152D01*
X0169327Y0108726D01*
X0170614Y0107439D01*
X0168480Y0109573D02*
X0166764Y0111289D01*
X0164190Y0108716D01*
X0165906Y0107000D01*
X0166335Y0109144D02*
X0165477Y0110002D01*
X0163342Y0109563D02*
X0161626Y0111279D01*
X0164200Y0113853D01*
X0148287Y0107116D02*
X0148287Y0104690D01*
X0145860Y0107116D01*
X0145254Y0107116D01*
X0144647Y0106510D01*
X0144647Y0105296D01*
X0145254Y0104690D01*
X0145254Y0103491D02*
X0147680Y0103491D01*
X0148287Y0102885D01*
X0148287Y0101671D01*
X0147680Y0101065D01*
X0145254Y0101065D01*
X0144647Y0101671D01*
X0144647Y0102885D01*
X0145254Y0103491D01*
X0147074Y0102278D02*
X0148287Y0103491D01*
X0161626Y0088779D02*
X0164200Y0091353D01*
X0166764Y0088789D02*
X0164190Y0086216D01*
X0165906Y0084500D01*
X0166753Y0083652D02*
X0168040Y0082365D01*
X0168898Y0082365D01*
X0170614Y0084081D01*
X0170614Y0084939D01*
X0169327Y0086226D01*
X0166753Y0083652D01*
X0171461Y0083234D02*
X0172319Y0083234D01*
X0173177Y0082376D01*
X0173177Y0081518D01*
X0172748Y0081089D01*
X0169316Y0081089D01*
X0171032Y0079373D01*
X0171880Y0078525D02*
X0173596Y0076809D01*
X0172738Y0077667D02*
X0175312Y0080241D01*
X0173596Y0080241D01*
X0168480Y0087073D02*
X0166764Y0088789D01*
X0165477Y0087502D02*
X0166335Y0086645D01*
X0163342Y0087063D02*
X0161626Y0088779D01*
X0148287Y0084010D02*
X0148287Y0082796D01*
X0147680Y0082190D01*
X0147680Y0080991D02*
X0145254Y0080991D01*
X0144647Y0080385D01*
X0144647Y0079171D01*
X0145254Y0078565D01*
X0147680Y0078565D01*
X0148287Y0079171D01*
X0148287Y0080385D01*
X0147680Y0080991D01*
X0148287Y0080991D02*
X0147074Y0079778D01*
X0145254Y0082190D02*
X0144647Y0082796D01*
X0144647Y0084010D01*
X0145254Y0084616D01*
X0145860Y0084616D01*
X0146467Y0084010D01*
X0147074Y0084616D01*
X0147680Y0084616D01*
X0148287Y0084010D01*
X0146467Y0084010D02*
X0146467Y0083403D01*
X0161626Y0066279D02*
X0164200Y0068853D01*
X0166764Y0066289D02*
X0164190Y0063716D01*
X0165906Y0062000D01*
X0166753Y0061152D02*
X0168040Y0059865D01*
X0168898Y0059865D01*
X0170614Y0061581D01*
X0170614Y0062439D01*
X0169327Y0063726D01*
X0166753Y0061152D01*
X0171461Y0060734D02*
X0172319Y0060734D01*
X0173177Y0059876D01*
X0173177Y0059018D01*
X0172748Y0058589D01*
X0169316Y0058589D01*
X0171032Y0056873D01*
X0172309Y0056454D02*
X0172738Y0056883D01*
X0173596Y0056883D01*
X0174454Y0056025D01*
X0174454Y0055167D01*
X0174025Y0054738D01*
X0173167Y0054738D01*
X0172309Y0055596D01*
X0172309Y0056454D01*
X0173596Y0056883D02*
X0173596Y0057741D01*
X0174025Y0058170D01*
X0174883Y0058170D01*
X0175741Y0057312D01*
X0175741Y0056454D01*
X0175312Y0056025D01*
X0174454Y0056025D01*
X0186690Y0063716D02*
X0188406Y0062000D01*
X0189253Y0061152D02*
X0190540Y0059865D01*
X0191398Y0059865D01*
X0193114Y0061581D01*
X0193114Y0062439D01*
X0191827Y0063726D01*
X0189253Y0061152D01*
X0186690Y0063716D02*
X0189264Y0066289D01*
X0190980Y0064573D01*
X0188835Y0064145D02*
X0187977Y0065002D01*
X0185842Y0064563D02*
X0184126Y0066279D01*
X0186700Y0068853D01*
X0195667Y0077238D02*
X0194809Y0078096D01*
X0194809Y0078954D01*
X0198241Y0078954D01*
X0196525Y0077238D01*
X0195667Y0077238D01*
X0194809Y0078954D02*
X0196525Y0080670D01*
X0197383Y0080670D01*
X0198241Y0079812D01*
X0198241Y0078954D01*
X0195677Y0081518D02*
X0195677Y0082376D01*
X0194819Y0083234D01*
X0193961Y0083234D01*
X0193114Y0084081D02*
X0193114Y0084939D01*
X0191827Y0086226D01*
X0189253Y0083652D01*
X0190540Y0082365D01*
X0191398Y0082365D01*
X0193114Y0084081D01*
X0188406Y0084500D02*
X0186690Y0086216D01*
X0189264Y0088789D01*
X0190980Y0087073D01*
X0188835Y0086645D02*
X0187977Y0087502D01*
X0185842Y0087063D02*
X0184126Y0088779D01*
X0186700Y0091353D01*
X0174883Y0100596D02*
X0173167Y0102312D01*
X0175741Y0102312D01*
X0173167Y0099738D01*
X0171032Y0101873D02*
X0169316Y0103589D01*
X0170174Y0102731D02*
X0172748Y0105305D01*
X0171032Y0105305D01*
X0206626Y0088779D02*
X0208342Y0087063D01*
X0209190Y0086216D02*
X0210906Y0084500D01*
X0211753Y0083652D02*
X0213040Y0082365D01*
X0213898Y0082365D01*
X0215614Y0084081D01*
X0215614Y0084939D01*
X0214327Y0086226D01*
X0211753Y0083652D01*
X0209190Y0086216D02*
X0211764Y0088789D01*
X0213480Y0087073D01*
X0211335Y0086645D02*
X0210477Y0087502D01*
X0209200Y0091353D02*
X0206626Y0088779D01*
X0216032Y0082805D02*
X0217748Y0082805D01*
X0215174Y0080231D01*
X0214316Y0081089D02*
X0216032Y0079373D01*
X0217309Y0078954D02*
X0217309Y0078096D01*
X0218167Y0077238D01*
X0219025Y0077238D01*
X0220741Y0078954D01*
X0220741Y0079812D01*
X0219883Y0080670D01*
X0219025Y0080670D01*
X0218596Y0080241D01*
X0218596Y0079383D01*
X0219883Y0078096D01*
X0231690Y0086216D02*
X0233406Y0084500D01*
X0234253Y0083652D02*
X0235540Y0082365D01*
X0236398Y0082365D01*
X0238114Y0084081D01*
X0238114Y0084939D01*
X0236827Y0086226D01*
X0234253Y0083652D01*
X0231690Y0086216D02*
X0234264Y0088789D01*
X0235980Y0087073D01*
X0233835Y0086645D02*
X0232977Y0087502D01*
X0230842Y0087063D02*
X0229126Y0088779D01*
X0231700Y0091353D01*
X0238532Y0082805D02*
X0240248Y0082805D01*
X0237674Y0080231D01*
X0236816Y0081089D02*
X0238532Y0079373D01*
X0239809Y0078954D02*
X0240238Y0079383D01*
X0241096Y0079383D01*
X0241954Y0078525D01*
X0241954Y0077667D01*
X0241525Y0077238D01*
X0240667Y0077238D01*
X0239809Y0078096D01*
X0239809Y0078954D01*
X0241096Y0079383D02*
X0241096Y0080241D01*
X0241525Y0080670D01*
X0242383Y0080670D01*
X0243241Y0079812D01*
X0243241Y0078954D01*
X0242812Y0078525D01*
X0241954Y0078525D01*
X0254190Y0086216D02*
X0255906Y0084500D01*
X0256753Y0083652D02*
X0258040Y0082365D01*
X0258898Y0082365D01*
X0260614Y0084081D01*
X0260614Y0084939D01*
X0259327Y0086226D01*
X0256753Y0083652D01*
X0254190Y0086216D02*
X0256764Y0088789D01*
X0258480Y0087073D01*
X0256335Y0086645D02*
X0255477Y0087502D01*
X0253342Y0087063D02*
X0251626Y0088779D01*
X0254200Y0091353D01*
X0261032Y0082805D02*
X0262748Y0082805D01*
X0260174Y0080231D01*
X0259316Y0081089D02*
X0261032Y0079373D01*
X0261880Y0078525D02*
X0262309Y0078954D01*
X0265741Y0078954D01*
X0266170Y0079383D01*
X0264454Y0081099D01*
X0281816Y0081089D02*
X0283532Y0079373D01*
X0282674Y0080231D02*
X0285248Y0082805D01*
X0283532Y0082805D01*
X0285667Y0079812D02*
X0284809Y0078954D01*
X0284809Y0078096D01*
X0285667Y0077238D01*
X0286525Y0077238D01*
X0286954Y0077667D01*
X0286954Y0078525D01*
X0285667Y0079812D01*
X0287383Y0079812D01*
X0288670Y0079383D01*
X0276700Y0068853D02*
X0274126Y0066279D01*
X0275842Y0064563D01*
X0276690Y0063716D02*
X0278406Y0062000D01*
X0279253Y0061152D02*
X0280540Y0059865D01*
X0281398Y0059865D01*
X0283114Y0061581D01*
X0283114Y0062439D01*
X0281827Y0063726D01*
X0279253Y0061152D01*
X0276690Y0063716D02*
X0279264Y0066289D01*
X0280980Y0064573D01*
X0278835Y0064145D02*
X0277977Y0065002D01*
X0283961Y0060734D02*
X0284819Y0060734D01*
X0285677Y0059876D01*
X0285677Y0059018D01*
X0285248Y0058589D01*
X0281816Y0058589D01*
X0283532Y0056873D01*
X0284809Y0056454D02*
X0284809Y0055596D01*
X0285667Y0054738D01*
X0286525Y0054738D01*
X0286954Y0055167D01*
X0286954Y0056025D01*
X0286525Y0056454D01*
X0286954Y0056025D02*
X0287812Y0056025D01*
X0288241Y0056454D01*
X0288241Y0057312D01*
X0287383Y0058170D01*
X0286525Y0058170D01*
X0265741Y0057312D02*
X0263167Y0057312D01*
X0264883Y0055596D01*
X0263167Y0054738D02*
X0265741Y0057312D01*
X0263177Y0059018D02*
X0263177Y0059876D01*
X0262319Y0060734D01*
X0261461Y0060734D01*
X0260614Y0061581D02*
X0260614Y0062439D01*
X0259327Y0063726D01*
X0256753Y0061152D01*
X0258040Y0059865D01*
X0258898Y0059865D01*
X0260614Y0061581D01*
X0259316Y0058589D02*
X0262748Y0058589D01*
X0263177Y0059018D01*
X0261032Y0056873D02*
X0259316Y0058589D01*
X0255906Y0062000D02*
X0254190Y0063716D01*
X0256764Y0066289D01*
X0258480Y0064573D01*
X0256335Y0064144D02*
X0255477Y0065002D01*
X0253342Y0064563D02*
X0251626Y0066279D01*
X0254200Y0068853D01*
X0240677Y0059876D02*
X0239819Y0060734D01*
X0238961Y0060734D01*
X0238114Y0061581D02*
X0238114Y0062439D01*
X0236827Y0063726D01*
X0234253Y0061152D01*
X0235540Y0059865D01*
X0236398Y0059865D01*
X0238114Y0061581D01*
X0240677Y0059876D02*
X0240677Y0059018D01*
X0240248Y0058589D01*
X0236816Y0058589D01*
X0238532Y0056873D01*
X0239809Y0056454D02*
X0239809Y0055596D01*
X0240667Y0054738D01*
X0241525Y0054738D01*
X0242383Y0055596D01*
X0242383Y0056454D01*
X0241954Y0056883D01*
X0240667Y0057312D01*
X0241954Y0058599D01*
X0243670Y0056883D01*
X0233406Y0062000D02*
X0231690Y0063716D01*
X0234264Y0066289D01*
X0235980Y0064573D01*
X0233835Y0064145D02*
X0232977Y0065002D01*
X0230842Y0064563D02*
X0229126Y0066279D01*
X0231700Y0068853D01*
X0215614Y0062439D02*
X0215614Y0061581D01*
X0213898Y0059865D01*
X0213040Y0059865D01*
X0211753Y0061152D01*
X0214327Y0063726D01*
X0215614Y0062439D01*
X0213480Y0064573D02*
X0211764Y0066289D01*
X0209190Y0063716D01*
X0210906Y0062000D01*
X0211335Y0064145D02*
X0210477Y0065002D01*
X0208342Y0064563D02*
X0206626Y0066279D01*
X0209200Y0068853D01*
X0216461Y0060734D02*
X0217319Y0060734D01*
X0218177Y0059876D01*
X0218177Y0059018D01*
X0217748Y0058589D01*
X0214316Y0058589D01*
X0216032Y0056873D01*
X0217309Y0056454D02*
X0217309Y0055596D01*
X0218167Y0054738D01*
X0219025Y0054738D01*
X0219454Y0055167D01*
X0219454Y0056025D01*
X0218167Y0057312D01*
X0217309Y0056454D01*
X0218167Y0057312D02*
X0219883Y0057312D01*
X0221170Y0056883D01*
X0198670Y0056883D02*
X0198241Y0056454D01*
X0194809Y0056454D01*
X0194380Y0056025D01*
X0193532Y0056873D02*
X0191816Y0058589D01*
X0195248Y0058589D01*
X0195677Y0059018D01*
X0195677Y0059876D01*
X0194819Y0060734D01*
X0193961Y0060734D01*
X0196954Y0058599D02*
X0198670Y0056883D01*
X0168480Y0064573D02*
X0166764Y0066289D01*
X0165477Y0065002D02*
X0166335Y0064145D01*
X0163342Y0064563D02*
X0161626Y0066279D01*
X0148287Y0061510D02*
X0144647Y0061510D01*
X0146467Y0059690D01*
X0146467Y0062116D01*
X0145254Y0058491D02*
X0147680Y0058491D01*
X0148287Y0057885D01*
X0148287Y0056671D01*
X0147680Y0056065D01*
X0145254Y0056065D01*
X0144647Y0056671D01*
X0144647Y0057885D01*
X0145254Y0058491D01*
X0147074Y0057278D02*
X0148287Y0058491D01*
X0115350Y0057492D02*
X0114137Y0056278D01*
X0114137Y0056885D02*
X0114137Y0055065D01*
X0115350Y0055065D02*
X0111710Y0055065D01*
X0111710Y0056885D01*
X0112317Y0057492D01*
X0113530Y0057492D01*
X0114137Y0056885D01*
X0113530Y0058690D02*
X0113530Y0061117D01*
X0115350Y0060510D02*
X0111710Y0060510D01*
X0113530Y0058690D01*
X0103287Y0060546D02*
X0102680Y0059939D01*
X0100254Y0059939D01*
X0099647Y0060546D01*
X0099647Y0061760D01*
X0100254Y0062366D01*
X0102680Y0062366D01*
X0103287Y0061760D01*
X0103287Y0060546D01*
X0102074Y0061153D02*
X0103287Y0062366D01*
X0103287Y0063565D02*
X0103287Y0065991D01*
X0103287Y0064778D02*
X0099647Y0064778D01*
X0100860Y0063565D01*
X0100254Y0067190D02*
X0099647Y0067796D01*
X0099647Y0069010D01*
X0100254Y0069616D01*
X0102680Y0067190D01*
X0103287Y0067796D01*
X0103287Y0069010D01*
X0102680Y0069616D01*
X0100254Y0069616D01*
X0100254Y0067190D02*
X0102680Y0067190D01*
X0102680Y0078565D02*
X0100254Y0078565D01*
X0099647Y0079171D01*
X0099647Y0080385D01*
X0100254Y0080991D01*
X0102680Y0080991D01*
X0103287Y0080385D01*
X0103287Y0079171D01*
X0102680Y0078565D01*
X0102074Y0079778D02*
X0103287Y0080991D01*
X0102680Y0082190D02*
X0103287Y0082796D01*
X0103287Y0084010D01*
X0102680Y0084616D01*
X0100254Y0084616D01*
X0099647Y0084010D01*
X0099647Y0082796D01*
X0100254Y0082190D01*
X0100860Y0082190D01*
X0101467Y0082796D01*
X0101467Y0084616D01*
X0111710Y0084297D02*
X0111710Y0085510D01*
X0112317Y0086117D01*
X0112923Y0086117D01*
X0113530Y0085510D01*
X0114137Y0086117D01*
X0114743Y0086117D01*
X0115350Y0085510D01*
X0115350Y0084297D01*
X0114743Y0083690D01*
X0115350Y0082492D02*
X0114137Y0081278D01*
X0114137Y0081885D02*
X0114137Y0080065D01*
X0115350Y0080065D02*
X0111710Y0080065D01*
X0111710Y0081885D01*
X0112317Y0082492D01*
X0113530Y0082492D01*
X0114137Y0081885D01*
X0112317Y0083690D02*
X0111710Y0084297D01*
X0113530Y0084903D02*
X0113530Y0085510D01*
X0103287Y0094171D02*
X0102680Y0093565D01*
X0100254Y0093565D01*
X0099647Y0094171D01*
X0099647Y0095385D01*
X0100254Y0095991D01*
X0102680Y0095991D01*
X0103287Y0095385D01*
X0103287Y0094171D01*
X0102074Y0094778D02*
X0103287Y0095991D01*
X0102680Y0097190D02*
X0102074Y0097190D01*
X0101467Y0097796D01*
X0101467Y0099010D01*
X0102074Y0099616D01*
X0102680Y0099616D01*
X0103287Y0099010D01*
X0103287Y0097796D01*
X0102680Y0097190D01*
X0101467Y0097796D02*
X0100860Y0097190D01*
X0100254Y0097190D01*
X0099647Y0097796D01*
X0099647Y0099010D01*
X0100254Y0099616D01*
X0100860Y0099616D01*
X0101467Y0099010D01*
X0111710Y0105065D02*
X0111710Y0106885D01*
X0112317Y0107492D01*
X0113530Y0107492D01*
X0114137Y0106885D01*
X0114137Y0105065D01*
X0115350Y0105065D02*
X0111710Y0105065D01*
X0114137Y0106278D02*
X0115350Y0107492D01*
X0115350Y0108690D02*
X0112923Y0111117D01*
X0112317Y0111117D01*
X0111710Y0110510D01*
X0111710Y0109297D01*
X0112317Y0108690D01*
X0115350Y0108690D02*
X0115350Y0111117D01*
X0103287Y0110991D02*
X0102074Y0109778D01*
X0103287Y0110385D02*
X0103287Y0109171D01*
X0102680Y0108565D01*
X0100254Y0108565D01*
X0099647Y0109171D01*
X0099647Y0110385D01*
X0100254Y0110991D01*
X0102680Y0110991D01*
X0103287Y0110385D01*
X0103287Y0112190D02*
X0102680Y0112190D01*
X0100254Y0114616D01*
X0099647Y0114616D01*
X0099647Y0112190D01*
X0100254Y0123565D02*
X0099647Y0124171D01*
X0099647Y0125385D01*
X0100254Y0125991D01*
X0102680Y0125991D01*
X0103287Y0125385D01*
X0103287Y0124171D01*
X0102680Y0123565D01*
X0100254Y0123565D01*
X0102074Y0124778D02*
X0103287Y0125991D01*
X0102680Y0127190D02*
X0103287Y0127796D01*
X0103287Y0129010D01*
X0102680Y0129616D01*
X0102074Y0129616D01*
X0101467Y0129010D01*
X0101467Y0127190D01*
X0102680Y0127190D01*
X0101467Y0127190D02*
X0100254Y0128403D01*
X0099647Y0129616D01*
X0111710Y0130065D02*
X0111710Y0131885D01*
X0112317Y0132492D01*
X0113530Y0132492D01*
X0114137Y0131885D01*
X0114137Y0130065D01*
X0115350Y0130065D02*
X0111710Y0130065D01*
X0114137Y0131278D02*
X0115350Y0132492D01*
X0115350Y0133690D02*
X0115350Y0136117D01*
X0115350Y0134903D02*
X0111710Y0134903D01*
X0112923Y0133690D01*
X0144647Y0128403D02*
X0145860Y0127190D01*
X0145254Y0125991D02*
X0147680Y0125991D01*
X0148287Y0125385D01*
X0148287Y0124171D01*
X0147680Y0123565D01*
X0145254Y0123565D01*
X0144647Y0124171D01*
X0144647Y0125385D01*
X0145254Y0125991D01*
X0147074Y0124778D02*
X0148287Y0125991D01*
X0148287Y0127190D02*
X0148287Y0129616D01*
X0148287Y0128403D02*
X0144647Y0128403D01*
X0161626Y0133779D02*
X0163342Y0132063D01*
X0164190Y0131216D02*
X0165906Y0129500D01*
X0166753Y0128652D02*
X0168040Y0127365D01*
X0168898Y0127365D01*
X0170614Y0129081D01*
X0170614Y0129939D01*
X0169327Y0131226D01*
X0166753Y0128652D01*
X0169316Y0126089D02*
X0169745Y0126518D01*
X0173177Y0126518D01*
X0173606Y0126947D01*
X0171890Y0128663D01*
X0168480Y0132073D02*
X0166764Y0133789D01*
X0164190Y0131216D01*
X0165477Y0132502D02*
X0166335Y0131644D01*
X0164200Y0136353D02*
X0161626Y0133779D01*
X0184126Y0133779D02*
X0185842Y0132063D01*
X0186690Y0131216D02*
X0188406Y0129500D01*
X0189253Y0128652D02*
X0190540Y0127365D01*
X0191398Y0127365D01*
X0193114Y0129081D01*
X0193114Y0129939D01*
X0191827Y0131226D01*
X0189253Y0128652D01*
X0192245Y0126518D02*
X0192245Y0125660D01*
X0193103Y0124802D01*
X0193961Y0124802D01*
X0194390Y0125231D01*
X0194390Y0126089D01*
X0193103Y0127376D01*
X0192245Y0126518D01*
X0193103Y0127376D02*
X0194819Y0127376D01*
X0196106Y0126947D01*
X0190980Y0132073D02*
X0189264Y0133789D01*
X0186690Y0131216D01*
X0187977Y0132502D02*
X0188835Y0131644D01*
X0186700Y0136353D02*
X0184126Y0133779D01*
X0206626Y0133779D02*
X0208342Y0132063D01*
X0209190Y0131216D02*
X0210906Y0129500D01*
X0211753Y0128652D02*
X0213040Y0127365D01*
X0213898Y0127365D01*
X0215614Y0129081D01*
X0215614Y0129939D01*
X0214327Y0131226D01*
X0211753Y0128652D01*
X0214745Y0126518D02*
X0214745Y0125660D01*
X0215603Y0124802D01*
X0216461Y0124802D01*
X0217319Y0125660D01*
X0217319Y0126518D01*
X0216890Y0126947D01*
X0215603Y0127376D01*
X0216890Y0128663D01*
X0218606Y0126947D01*
X0213480Y0132073D02*
X0211764Y0133789D01*
X0209190Y0131216D01*
X0210477Y0132502D02*
X0211335Y0131644D01*
X0209200Y0136353D02*
X0206626Y0133779D01*
X0229126Y0133779D02*
X0230842Y0132063D01*
X0231690Y0131216D02*
X0233406Y0129500D01*
X0234253Y0128652D02*
X0235540Y0127365D01*
X0236398Y0127365D01*
X0238114Y0129081D01*
X0238114Y0129939D01*
X0236827Y0131226D01*
X0234253Y0128652D01*
X0238103Y0127376D02*
X0239819Y0125660D01*
X0238103Y0124802D02*
X0240677Y0127376D01*
X0238103Y0127376D01*
X0235980Y0132073D02*
X0234264Y0133789D01*
X0231690Y0131216D01*
X0232977Y0132502D02*
X0233835Y0131644D01*
X0231700Y0136353D02*
X0229126Y0133779D01*
X0251626Y0133779D02*
X0253342Y0132063D01*
X0254190Y0131216D02*
X0256764Y0133789D01*
X0258480Y0132073D01*
X0259327Y0131226D02*
X0260614Y0129939D01*
X0260614Y0129081D01*
X0258898Y0127365D01*
X0258040Y0127365D01*
X0256753Y0128652D01*
X0259327Y0131226D01*
X0256335Y0131644D02*
X0255477Y0132502D01*
X0254190Y0131216D02*
X0255906Y0129500D01*
X0259745Y0126518D02*
X0259745Y0125660D01*
X0260603Y0124802D01*
X0261461Y0124802D01*
X0261890Y0125231D01*
X0261890Y0126089D01*
X0261461Y0126518D01*
X0261890Y0126089D02*
X0262748Y0126089D01*
X0263177Y0126518D01*
X0263177Y0127376D01*
X0262319Y0128234D01*
X0261461Y0128234D01*
X0254200Y0136353D02*
X0251626Y0133779D01*
X0274126Y0133779D02*
X0275842Y0132063D01*
X0276690Y0131216D02*
X0278406Y0129500D01*
X0279253Y0128652D02*
X0280540Y0127365D01*
X0281398Y0127365D01*
X0283114Y0129081D01*
X0283114Y0129939D01*
X0281827Y0131226D01*
X0279253Y0128652D01*
X0283961Y0128234D02*
X0284819Y0128234D01*
X0285677Y0127376D01*
X0285677Y0126518D01*
X0285248Y0126089D01*
X0281816Y0126089D01*
X0283532Y0124373D01*
X0280980Y0132073D02*
X0279264Y0133789D01*
X0276690Y0131216D01*
X0277977Y0132502D02*
X0278835Y0131644D01*
X0276700Y0136353D02*
X0274126Y0133779D01*
X0296626Y0133779D02*
X0298342Y0132063D01*
X0299190Y0131216D02*
X0300906Y0129500D01*
X0301753Y0128652D02*
X0303040Y0127365D01*
X0303898Y0127365D01*
X0305614Y0129081D01*
X0305614Y0129939D01*
X0304327Y0131226D01*
X0301753Y0128652D01*
X0306032Y0127805D02*
X0307748Y0127805D01*
X0305174Y0125231D01*
X0304316Y0126089D02*
X0306032Y0124373D01*
X0303480Y0132073D02*
X0301764Y0133789D01*
X0299190Y0131216D01*
X0300477Y0132502D02*
X0301335Y0131644D01*
X0299200Y0136353D02*
X0296626Y0133779D01*
X0299200Y0113853D02*
X0296626Y0111279D01*
X0298342Y0109563D01*
X0299190Y0108716D02*
X0300906Y0107000D01*
X0301753Y0106152D02*
X0303040Y0104865D01*
X0303898Y0104865D01*
X0305614Y0106581D01*
X0305614Y0107439D01*
X0304327Y0108726D01*
X0301753Y0106152D01*
X0299190Y0108716D02*
X0301764Y0111289D01*
X0303480Y0109573D01*
X0301335Y0109144D02*
X0300477Y0110002D01*
X0306032Y0105305D02*
X0306461Y0105734D01*
X0307319Y0105734D01*
X0308177Y0104876D01*
X0308177Y0104018D01*
X0307748Y0103589D01*
X0306890Y0103589D01*
X0306032Y0104447D01*
X0306032Y0105305D01*
X0306032Y0104447D02*
X0305174Y0104447D01*
X0304745Y0104018D01*
X0304745Y0103160D01*
X0305603Y0102302D01*
X0306461Y0102302D01*
X0306890Y0102731D01*
X0306890Y0103589D01*
X0285677Y0104018D02*
X0285677Y0104876D01*
X0284819Y0105734D01*
X0283961Y0105734D01*
X0283532Y0105305D01*
X0283532Y0104447D01*
X0284819Y0103160D01*
X0283961Y0102302D02*
X0285677Y0104018D01*
X0283103Y0102302D02*
X0282245Y0103160D01*
X0282245Y0104018D01*
X0281398Y0104865D02*
X0283114Y0106581D01*
X0283114Y0107439D01*
X0281827Y0108726D01*
X0279253Y0106152D01*
X0280540Y0104865D01*
X0281398Y0104865D01*
X0278406Y0107000D02*
X0276690Y0108716D01*
X0279264Y0111289D01*
X0280980Y0109573D01*
X0278835Y0109144D02*
X0277977Y0110002D01*
X0275842Y0109563D02*
X0274126Y0111279D01*
X0276700Y0113853D01*
X0283103Y0102302D02*
X0283961Y0102302D01*
X0195677Y0081518D02*
X0195248Y0081089D01*
X0191816Y0081089D01*
X0193532Y0079373D01*
X0103287Y0054616D02*
X0103287Y0052190D01*
X0103287Y0050991D02*
X0103287Y0048565D01*
X0103287Y0047366D02*
X0102074Y0046153D01*
X0103287Y0046760D02*
X0103287Y0045546D01*
X0102680Y0044939D01*
X0100254Y0044939D01*
X0099647Y0045546D01*
X0099647Y0046760D01*
X0100254Y0047366D01*
X0102680Y0047366D01*
X0103287Y0046760D01*
X0100860Y0048565D02*
X0099647Y0049778D01*
X0103287Y0049778D01*
X0100860Y0052190D02*
X0099647Y0053403D01*
X0103287Y0053403D01*
D18*
X0048700Y0062415D02*
X0048700Y0027415D01*
X0048700Y0109915D02*
X0048700Y0144915D01*
M02*
