G75*
%MOIN*%
%OFA0B0*%
%FSLAX25Y25*%
%IPPOS*%
%LPD*%
%AMOC8*
5,1,8,0,0,1.08239X$1,22.5*
%
%ADD10R,0.09500X0.03200*%
%ADD11R,0.07099X0.07887*%
%ADD12R,0.07887X0.07099*%
%ADD13R,0.08800X0.03400*%
%ADD14R,0.04343X0.03950*%
%ADD15R,0.15800X0.08300*%
%ADD16C,0.05906*%
%ADD17R,0.05524X0.06312*%
D10*
X0041700Y0074915D03*
X0041700Y0079915D03*
X0041700Y0084915D03*
X0041700Y0089915D03*
X0068200Y0089915D03*
X0068200Y0084915D03*
X0068200Y0079915D03*
X0068200Y0074915D03*
D11*
X0058512Y0015515D03*
X0047488Y0015515D03*
D12*
X0120000Y0024403D03*
X0120000Y0035427D03*
X0120000Y0054403D03*
X0120000Y0065427D03*
X0120000Y0079403D03*
X0120000Y0090427D03*
X0120000Y0104403D03*
X0120000Y0115427D03*
X0120000Y0129403D03*
X0120000Y0140427D03*
D13*
X0067100Y0142415D03*
X0067100Y0137415D03*
X0067100Y0132415D03*
X0067100Y0127415D03*
X0067100Y0122415D03*
X0067100Y0117415D03*
X0067100Y0112415D03*
X0042900Y0112415D03*
X0042900Y0117415D03*
X0042900Y0122415D03*
X0042900Y0127415D03*
X0042900Y0132415D03*
X0042900Y0137415D03*
X0042900Y0142415D03*
X0042900Y0059915D03*
X0042900Y0054915D03*
X0042900Y0049915D03*
X0042900Y0044915D03*
X0042900Y0039915D03*
X0042900Y0034915D03*
X0042900Y0029915D03*
X0067100Y0029915D03*
X0067100Y0034915D03*
X0067100Y0039915D03*
X0067100Y0044915D03*
X0067100Y0049915D03*
X0067100Y0054915D03*
X0067100Y0059915D03*
D14*
X0088563Y0063675D03*
X0096831Y0067415D03*
X0088563Y0071155D03*
X0088563Y0078675D03*
X0096831Y0082415D03*
X0088563Y0086155D03*
X0088563Y0093675D03*
X0096831Y0097415D03*
X0088563Y0101155D03*
X0088563Y0108675D03*
X0096831Y0112415D03*
X0088563Y0116155D03*
X0088563Y0123675D03*
X0096831Y0127415D03*
X0088563Y0131155D03*
X0133563Y0131155D03*
X0141831Y0127415D03*
X0133563Y0123675D03*
X0133563Y0108655D03*
X0141831Y0104915D03*
X0133563Y0101175D03*
X0133563Y0086155D03*
X0141831Y0082415D03*
X0133563Y0078675D03*
X0133563Y0063655D03*
X0141831Y0059915D03*
X0133563Y0056175D03*
X0133563Y0041155D03*
X0141831Y0037415D03*
X0133563Y0033675D03*
X0096831Y0037415D03*
X0088563Y0041155D03*
X0088563Y0033675D03*
X0088563Y0048675D03*
X0096831Y0052415D03*
X0088563Y0056155D03*
D15*
X0010000Y0017415D03*
X0010000Y0027415D03*
X0010000Y0037415D03*
X0010000Y0047415D03*
X0010000Y0057415D03*
X0010000Y0067415D03*
X0010000Y0077415D03*
X0010000Y0087415D03*
X0010000Y0097415D03*
X0010000Y0107415D03*
X0010000Y0117415D03*
X0010000Y0127415D03*
X0010000Y0137415D03*
X0010000Y0147415D03*
D16*
X0005000Y0154915D03*
X0305000Y0014915D03*
D17*
G36*
X0298898Y0029055D02*
X0294992Y0032961D01*
X0299454Y0037423D01*
X0303360Y0033517D01*
X0298898Y0029055D01*
G37*
G36*
X0276398Y0029055D02*
X0272492Y0032961D01*
X0276954Y0037423D01*
X0280860Y0033517D01*
X0276398Y0029055D01*
G37*
G36*
X0253898Y0029055D02*
X0249992Y0032961D01*
X0254454Y0037423D01*
X0258360Y0033517D01*
X0253898Y0029055D01*
G37*
G36*
X0231398Y0029055D02*
X0227492Y0032961D01*
X0231954Y0037423D01*
X0235860Y0033517D01*
X0231398Y0029055D01*
G37*
G36*
X0208898Y0029055D02*
X0204992Y0032961D01*
X0209454Y0037423D01*
X0213360Y0033517D01*
X0208898Y0029055D01*
G37*
G36*
X0186398Y0029055D02*
X0182492Y0032961D01*
X0186954Y0037423D01*
X0190860Y0033517D01*
X0186398Y0029055D01*
G37*
G36*
X0163898Y0029055D02*
X0159992Y0032961D01*
X0164454Y0037423D01*
X0168360Y0033517D01*
X0163898Y0029055D01*
G37*
G36*
X0155546Y0037407D02*
X0151640Y0041313D01*
X0156102Y0045775D01*
X0160008Y0041869D01*
X0155546Y0037407D01*
G37*
G36*
X0178046Y0037407D02*
X0174140Y0041313D01*
X0178602Y0045775D01*
X0182508Y0041869D01*
X0178046Y0037407D01*
G37*
G36*
X0200546Y0037407D02*
X0196640Y0041313D01*
X0201102Y0045775D01*
X0205008Y0041869D01*
X0200546Y0037407D01*
G37*
G36*
X0223046Y0037407D02*
X0219140Y0041313D01*
X0223602Y0045775D01*
X0227508Y0041869D01*
X0223046Y0037407D01*
G37*
G36*
X0245546Y0037407D02*
X0241640Y0041313D01*
X0246102Y0045775D01*
X0250008Y0041869D01*
X0245546Y0037407D01*
G37*
G36*
X0268046Y0037407D02*
X0264140Y0041313D01*
X0268602Y0045775D01*
X0272508Y0041869D01*
X0268046Y0037407D01*
G37*
G36*
X0290546Y0037407D02*
X0286640Y0041313D01*
X0291102Y0045775D01*
X0295008Y0041869D01*
X0290546Y0037407D01*
G37*
G36*
X0298898Y0051555D02*
X0294992Y0055461D01*
X0299454Y0059923D01*
X0303360Y0056017D01*
X0298898Y0051555D01*
G37*
G36*
X0276398Y0051555D02*
X0272492Y0055461D01*
X0276954Y0059923D01*
X0280860Y0056017D01*
X0276398Y0051555D01*
G37*
G36*
X0253898Y0051555D02*
X0249992Y0055461D01*
X0254454Y0059923D01*
X0258360Y0056017D01*
X0253898Y0051555D01*
G37*
G36*
X0231398Y0051555D02*
X0227492Y0055461D01*
X0231954Y0059923D01*
X0235860Y0056017D01*
X0231398Y0051555D01*
G37*
G36*
X0208898Y0051555D02*
X0204992Y0055461D01*
X0209454Y0059923D01*
X0213360Y0056017D01*
X0208898Y0051555D01*
G37*
G36*
X0186398Y0051555D02*
X0182492Y0055461D01*
X0186954Y0059923D01*
X0190860Y0056017D01*
X0186398Y0051555D01*
G37*
G36*
X0163898Y0051555D02*
X0159992Y0055461D01*
X0164454Y0059923D01*
X0168360Y0056017D01*
X0163898Y0051555D01*
G37*
G36*
X0155546Y0059907D02*
X0151640Y0063813D01*
X0156102Y0068275D01*
X0160008Y0064369D01*
X0155546Y0059907D01*
G37*
G36*
X0178046Y0059907D02*
X0174140Y0063813D01*
X0178602Y0068275D01*
X0182508Y0064369D01*
X0178046Y0059907D01*
G37*
G36*
X0200546Y0059907D02*
X0196640Y0063813D01*
X0201102Y0068275D01*
X0205008Y0064369D01*
X0200546Y0059907D01*
G37*
G36*
X0223046Y0059907D02*
X0219140Y0063813D01*
X0223602Y0068275D01*
X0227508Y0064369D01*
X0223046Y0059907D01*
G37*
G36*
X0245546Y0059907D02*
X0241640Y0063813D01*
X0246102Y0068275D01*
X0250008Y0064369D01*
X0245546Y0059907D01*
G37*
G36*
X0268046Y0059907D02*
X0264140Y0063813D01*
X0268602Y0068275D01*
X0272508Y0064369D01*
X0268046Y0059907D01*
G37*
G36*
X0290546Y0059907D02*
X0286640Y0063813D01*
X0291102Y0068275D01*
X0295008Y0064369D01*
X0290546Y0059907D01*
G37*
G36*
X0298898Y0074055D02*
X0294992Y0077961D01*
X0299454Y0082423D01*
X0303360Y0078517D01*
X0298898Y0074055D01*
G37*
G36*
X0276398Y0074055D02*
X0272492Y0077961D01*
X0276954Y0082423D01*
X0280860Y0078517D01*
X0276398Y0074055D01*
G37*
G36*
X0253898Y0074055D02*
X0249992Y0077961D01*
X0254454Y0082423D01*
X0258360Y0078517D01*
X0253898Y0074055D01*
G37*
G36*
X0231398Y0074055D02*
X0227492Y0077961D01*
X0231954Y0082423D01*
X0235860Y0078517D01*
X0231398Y0074055D01*
G37*
G36*
X0208898Y0074055D02*
X0204992Y0077961D01*
X0209454Y0082423D01*
X0213360Y0078517D01*
X0208898Y0074055D01*
G37*
G36*
X0186398Y0074055D02*
X0182492Y0077961D01*
X0186954Y0082423D01*
X0190860Y0078517D01*
X0186398Y0074055D01*
G37*
G36*
X0163898Y0074055D02*
X0159992Y0077961D01*
X0164454Y0082423D01*
X0168360Y0078517D01*
X0163898Y0074055D01*
G37*
G36*
X0155546Y0082407D02*
X0151640Y0086313D01*
X0156102Y0090775D01*
X0160008Y0086869D01*
X0155546Y0082407D01*
G37*
G36*
X0178046Y0082407D02*
X0174140Y0086313D01*
X0178602Y0090775D01*
X0182508Y0086869D01*
X0178046Y0082407D01*
G37*
G36*
X0200546Y0082407D02*
X0196640Y0086313D01*
X0201102Y0090775D01*
X0205008Y0086869D01*
X0200546Y0082407D01*
G37*
G36*
X0223046Y0082407D02*
X0219140Y0086313D01*
X0223602Y0090775D01*
X0227508Y0086869D01*
X0223046Y0082407D01*
G37*
G36*
X0245546Y0082407D02*
X0241640Y0086313D01*
X0246102Y0090775D01*
X0250008Y0086869D01*
X0245546Y0082407D01*
G37*
G36*
X0268046Y0082407D02*
X0264140Y0086313D01*
X0268602Y0090775D01*
X0272508Y0086869D01*
X0268046Y0082407D01*
G37*
G36*
X0290546Y0082407D02*
X0286640Y0086313D01*
X0291102Y0090775D01*
X0295008Y0086869D01*
X0290546Y0082407D01*
G37*
G36*
X0298898Y0096555D02*
X0294992Y0100461D01*
X0299454Y0104923D01*
X0303360Y0101017D01*
X0298898Y0096555D01*
G37*
G36*
X0276398Y0096555D02*
X0272492Y0100461D01*
X0276954Y0104923D01*
X0280860Y0101017D01*
X0276398Y0096555D01*
G37*
G36*
X0253898Y0096555D02*
X0249992Y0100461D01*
X0254454Y0104923D01*
X0258360Y0101017D01*
X0253898Y0096555D01*
G37*
G36*
X0231398Y0096555D02*
X0227492Y0100461D01*
X0231954Y0104923D01*
X0235860Y0101017D01*
X0231398Y0096555D01*
G37*
G36*
X0208898Y0096555D02*
X0204992Y0100461D01*
X0209454Y0104923D01*
X0213360Y0101017D01*
X0208898Y0096555D01*
G37*
G36*
X0186398Y0096555D02*
X0182492Y0100461D01*
X0186954Y0104923D01*
X0190860Y0101017D01*
X0186398Y0096555D01*
G37*
G36*
X0163898Y0096555D02*
X0159992Y0100461D01*
X0164454Y0104923D01*
X0168360Y0101017D01*
X0163898Y0096555D01*
G37*
G36*
X0155546Y0104907D02*
X0151640Y0108813D01*
X0156102Y0113275D01*
X0160008Y0109369D01*
X0155546Y0104907D01*
G37*
G36*
X0178046Y0104907D02*
X0174140Y0108813D01*
X0178602Y0113275D01*
X0182508Y0109369D01*
X0178046Y0104907D01*
G37*
G36*
X0200546Y0104907D02*
X0196640Y0108813D01*
X0201102Y0113275D01*
X0205008Y0109369D01*
X0200546Y0104907D01*
G37*
G36*
X0223046Y0104907D02*
X0219140Y0108813D01*
X0223602Y0113275D01*
X0227508Y0109369D01*
X0223046Y0104907D01*
G37*
G36*
X0245546Y0104907D02*
X0241640Y0108813D01*
X0246102Y0113275D01*
X0250008Y0109369D01*
X0245546Y0104907D01*
G37*
G36*
X0268046Y0104907D02*
X0264140Y0108813D01*
X0268602Y0113275D01*
X0272508Y0109369D01*
X0268046Y0104907D01*
G37*
G36*
X0290546Y0104907D02*
X0286640Y0108813D01*
X0291102Y0113275D01*
X0295008Y0109369D01*
X0290546Y0104907D01*
G37*
G36*
X0298898Y0119055D02*
X0294992Y0122961D01*
X0299454Y0127423D01*
X0303360Y0123517D01*
X0298898Y0119055D01*
G37*
G36*
X0276398Y0119055D02*
X0272492Y0122961D01*
X0276954Y0127423D01*
X0280860Y0123517D01*
X0276398Y0119055D01*
G37*
G36*
X0253898Y0119055D02*
X0249992Y0122961D01*
X0254454Y0127423D01*
X0258360Y0123517D01*
X0253898Y0119055D01*
G37*
G36*
X0231398Y0119055D02*
X0227492Y0122961D01*
X0231954Y0127423D01*
X0235860Y0123517D01*
X0231398Y0119055D01*
G37*
G36*
X0208898Y0119055D02*
X0204992Y0122961D01*
X0209454Y0127423D01*
X0213360Y0123517D01*
X0208898Y0119055D01*
G37*
G36*
X0186398Y0119055D02*
X0182492Y0122961D01*
X0186954Y0127423D01*
X0190860Y0123517D01*
X0186398Y0119055D01*
G37*
G36*
X0163898Y0119055D02*
X0159992Y0122961D01*
X0164454Y0127423D01*
X0168360Y0123517D01*
X0163898Y0119055D01*
G37*
G36*
X0155546Y0127407D02*
X0151640Y0131313D01*
X0156102Y0135775D01*
X0160008Y0131869D01*
X0155546Y0127407D01*
G37*
G36*
X0178046Y0127407D02*
X0174140Y0131313D01*
X0178602Y0135775D01*
X0182508Y0131869D01*
X0178046Y0127407D01*
G37*
G36*
X0200546Y0127407D02*
X0196640Y0131313D01*
X0201102Y0135775D01*
X0205008Y0131869D01*
X0200546Y0127407D01*
G37*
G36*
X0223046Y0127407D02*
X0219140Y0131313D01*
X0223602Y0135775D01*
X0227508Y0131869D01*
X0223046Y0127407D01*
G37*
G36*
X0245546Y0127407D02*
X0241640Y0131313D01*
X0246102Y0135775D01*
X0250008Y0131869D01*
X0245546Y0127407D01*
G37*
G36*
X0268046Y0127407D02*
X0264140Y0131313D01*
X0268602Y0135775D01*
X0272508Y0131869D01*
X0268046Y0127407D01*
G37*
G36*
X0290546Y0127407D02*
X0286640Y0131313D01*
X0291102Y0135775D01*
X0295008Y0131869D01*
X0290546Y0127407D01*
G37*
M02*
