G75*
%MOIN*%
%OFA0B0*%
%FSLAX25Y25*%
%IPPOS*%
%LPD*%
%AMOC8*
5,1,8,0,0,1.08239X$1,22.5*
%
%ADD10C,0.01000*%
%ADD11C,0.04000*%
D10*
X0024100Y0027215D02*
X0032200Y0019115D01*
X0076300Y0019115D01*
X0100600Y0043415D01*
X0100600Y0051515D01*
X0102400Y0053315D01*
X0102400Y0056015D01*
X0106000Y0054215D02*
X0106000Y0064115D01*
X0104200Y0065915D01*
X0104200Y0101015D01*
X0113200Y0110015D01*
X0113200Y0115415D01*
X0113200Y0137015D01*
X0111400Y0144215D02*
X0124000Y0131615D01*
X0126700Y0131615D01*
X0130300Y0133415D02*
X0117700Y0146015D01*
X0022300Y0146015D01*
X0050200Y0132515D02*
X0058300Y0140615D01*
X0076300Y0140615D01*
X0100600Y0116315D01*
X0100600Y0075815D01*
X0097000Y0074015D02*
X0097000Y0101915D01*
X0087100Y0094715D02*
X0059200Y0122615D01*
X0055600Y0122615D01*
X0053800Y0126215D02*
X0050200Y0122615D01*
X0049300Y0126215D02*
X0048400Y0126215D01*
X0046600Y0124415D01*
X0046600Y0111815D01*
X0022300Y0087515D01*
X0022300Y0065915D01*
X0027700Y0060515D01*
X0030400Y0063215D02*
X0026800Y0066815D01*
X0030400Y0063215D02*
X0057400Y0063215D01*
X0053800Y0071315D02*
X0031300Y0071315D01*
X0025900Y0074015D02*
X0031300Y0079415D01*
X0034000Y0079415D01*
X0034000Y0093815D01*
X0044800Y0104615D01*
X0040300Y0108215D02*
X0020500Y0088415D01*
X0020500Y0062315D01*
X0016900Y0060515D02*
X0016900Y0102815D01*
X0022300Y0108215D01*
X0013300Y0104615D02*
X0034900Y0126215D01*
X0038500Y0128915D02*
X0038500Y0111815D01*
X0021400Y0094715D01*
X0013300Y0104615D02*
X0013300Y0053315D01*
X0024100Y0042515D01*
X0024100Y0027215D01*
X0020500Y0024515D02*
X0020500Y0031715D01*
X0028600Y0028115D02*
X0048400Y0028115D01*
X0048400Y0025415D01*
X0048400Y0028115D02*
X0078100Y0028115D01*
X0083500Y0033515D01*
X0083500Y0048815D01*
X0077200Y0055115D01*
X0077200Y0077615D01*
X0072700Y0082115D01*
X0083500Y0092915D01*
X0087100Y0094715D02*
X0087100Y0091115D01*
X0080800Y0084815D01*
X0080800Y0079415D01*
X0072700Y0082115D02*
X0059200Y0095615D01*
X0059200Y0090215D02*
X0049300Y0080315D01*
X0053800Y0075815D01*
X0053800Y0071315D01*
X0072700Y0068615D02*
X0050200Y0046115D01*
X0020500Y0056915D02*
X0016900Y0060515D01*
X0080800Y0074015D02*
X0088000Y0074015D01*
X0090700Y0071315D01*
X0094300Y0071315D01*
X0097000Y0074015D01*
X0092500Y0074915D02*
X0092500Y0092015D01*
X0058300Y0126215D01*
X0053800Y0126215D01*
X0049300Y0126215D02*
X0060100Y0137015D01*
X0074500Y0137015D01*
X0077200Y0142415D02*
X0054700Y0142415D01*
X0040300Y0128015D01*
X0040300Y0108215D01*
X0040300Y0094715D02*
X0055600Y0110015D01*
X0053800Y0117215D02*
X0074500Y0096515D01*
X0108700Y0110915D02*
X0077200Y0142415D01*
X0053800Y0144215D02*
X0038500Y0128915D01*
X0053800Y0144215D02*
X0111400Y0144215D01*
X0130300Y0133415D02*
X0130300Y0124415D01*
X0110500Y0104615D01*
X0110500Y0101915D01*
X0133900Y0067715D02*
X0165400Y0099215D01*
X0202300Y0099215D01*
X0208600Y0105515D01*
X0208600Y0111815D01*
X0202300Y0099215D02*
X0208600Y0092915D01*
X0208600Y0084815D01*
X0208600Y0062315D01*
X0208600Y0039815D01*
X0231100Y0039815D02*
X0231100Y0048815D01*
X0228400Y0051515D01*
X0228400Y0074915D01*
X0225700Y0074915D01*
X0228400Y0074915D02*
X0228400Y0095615D01*
X0231100Y0098315D01*
X0231100Y0111815D01*
X0189700Y0095615D02*
X0189700Y0073115D01*
X0189700Y0052415D01*
X0170800Y0033515D01*
X0130300Y0033515D01*
X0124900Y0038915D01*
X0124900Y0052415D01*
X0113200Y0052415D01*
X0111400Y0056915D02*
X0111400Y0064115D01*
X0107800Y0067715D02*
X0133900Y0067715D01*
X0111400Y0056915D02*
X0106000Y0051515D01*
X0106000Y0041615D01*
X0102400Y0034415D02*
X0094300Y0034415D01*
X0075400Y0015515D01*
X0041200Y0015515D01*
X0102400Y0034415D02*
X0102400Y0050615D01*
X0106000Y0054215D01*
X0124900Y0052415D02*
X0155500Y0052415D01*
X0157300Y0054215D01*
X0163600Y0047915D02*
X0166300Y0050615D01*
X0166300Y0071315D01*
X0166300Y0094715D01*
X0187000Y0107315D02*
X0187000Y0114515D01*
X0277900Y0116315D02*
X0277900Y0048815D01*
X0277000Y0047915D01*
X0277000Y0039815D01*
X0163600Y0047915D02*
X0156400Y0040715D01*
X0160000Y0037115D01*
X0156400Y0040715D02*
X0128500Y0040715D01*
D11*
X0128500Y0040715D03*
X0113200Y0052415D03*
X0102400Y0056015D03*
X0111400Y0064115D03*
X0107800Y0067715D03*
X0100600Y0075815D03*
X0092500Y0074915D03*
X0080800Y0074015D03*
X0080800Y0079415D03*
X0072700Y0068615D03*
X0057400Y0063215D03*
X0053800Y0071315D03*
X0049300Y0080315D03*
X0034000Y0079415D03*
X0025900Y0074015D03*
X0031300Y0071315D03*
X0026800Y0066815D03*
X0020500Y0062315D03*
X0027700Y0060515D03*
X0020500Y0056915D03*
X0050200Y0046115D03*
X0020500Y0031715D03*
X0028600Y0028115D03*
X0020500Y0024515D03*
X0041200Y0015515D03*
X0048400Y0025415D03*
X0083500Y0033515D03*
X0102400Y0034415D03*
X0106000Y0041615D03*
X0083500Y0048815D03*
X0157300Y0054215D03*
X0163600Y0047915D03*
X0160000Y0037115D03*
X0170800Y0033515D03*
X0208600Y0039815D03*
X0231100Y0039815D03*
X0231100Y0048815D03*
X0208600Y0062315D03*
X0189700Y0073115D03*
X0166300Y0071315D03*
X0208600Y0084815D03*
X0189700Y0095615D03*
X0202300Y0099215D03*
X0187000Y0107315D03*
X0187000Y0114515D03*
X0208600Y0111815D03*
X0231100Y0111815D03*
X0228400Y0095615D03*
X0225700Y0074915D03*
X0277900Y0048815D03*
X0277000Y0039815D03*
X0166300Y0094715D03*
X0113200Y0115415D03*
X0108700Y0110915D03*
X0110500Y0101915D03*
X0097000Y0101915D03*
X0083500Y0092915D03*
X0074500Y0096515D03*
X0059200Y0095615D03*
X0059200Y0090215D03*
X0040300Y0094715D03*
X0044800Y0104615D03*
X0055600Y0110015D03*
X0053800Y0117215D03*
X0055600Y0122615D03*
X0050200Y0122615D03*
X0034900Y0126215D03*
X0050200Y0132515D03*
X0074500Y0137015D03*
X0113200Y0137015D03*
X0126700Y0131615D03*
X0022300Y0146015D03*
X0022300Y0108215D03*
X0021400Y0094715D03*
X0277900Y0116315D03*
M02*
